<?xml version="1.0" encoding="UTF-8"?>
<!DOCTYPE svg PUBLIC "-//W3C//DTD SVG 1.1//EN" "http://www.w3.org/Graphics/SVG/1.1/DTD/svg11.dtd">
<!-- Creator: CorelDRAW -->
<svg xmlns="http://www.w3.org/2000/svg" xml:space="preserve" width="7.70059in" height="7.70059in" version="1.1" style="shape-rendering:geometricPrecision; text-rendering:geometricPrecision; image-rendering:optimizeQuality; fill-rule:evenodd; clip-rule:evenodd"
viewBox="0 0 7694.98 7694.98"
 xmlns:xlink="http://www.w3.org/1999/xlink"
 xmlns:xodm="http://www.corel.com/coreldraw/odm/2003">
 <defs>
  <style type="text/css">
   <![CDATA[
    .fil0 {fill:none}
    .fil1 {fill:#A58B7A}
    .fil2 {fill:#CBB9A5}
    .fil3 {fill:#E9DEC8}
    .fil4 {fill:#A58B7A;fill-rule:nonzero}
    .fil5 {fill:#CBB9A5;fill-rule:nonzero}
   ]]>
  </style>
 </defs>
 <g id="Layer_x0020_1">
  <metadata id="CorelCorpID_0Corel-Layer"/>
  <rect class="fil0" width="7694.98" height="7694.98"/>
  <path class="fil1" d="M2725.29 3201.24c133.81,271.96 371.01,548.77 709.05,673.47 584.64,215.68 1231.69,-66.57 1537.98,-606.85 30.86,-54.44 51.58,-116.23 110.5,-147.45 54.68,-28.97 114.83,-32.89 133.95,-101.36 45.13,-161.67 69.01,-232.52 109.72,-395.37 13.58,-54.24 -40.53,-71.86 -58.86,-18.84l-102.37 295.84c-11.11,32.13 -29.66,38.52 -44.71,33.3 -16.02,-5.56 -27.85,-24.84 -15.99,-59.12l96.98 -280.35c11.86,-34.27 13.94,-46.32 -12.22,-63.37 -31.13,-2.77 -36.95,7.99 -48.78,42.26l-97.01 280.35c-11.87,34.28 -33.09,42.11 -49.11,36.59 -15.05,-5.19 -25.71,-21.67 -14.57,-53.8l102.34 -295.84c18.36,-53.03 -35.05,-72.6 -57.93,-21.57 -68.62,153.18 -93.64,223.64 -158.04,378.65 -46.34,111.45 107.12,168.11 18.79,289.19 -470.68,645.23 -1488.81,647.91 -2040.61,-38.07 -59.63,-74.13 -59.43,-90.45 -16.35,-179.53 36.39,-75.27 38.58,-178.5 -1.77,-278.22 -64.63,-159.79 -213.97,-250.16 -333.47,-201.82 -119.5,48.33 -163.99,217.12 -99.36,376.9 40.34,99.73 113.69,172.41 192.18,201.2 89.48,32.82 100.34,53.9 139.67,133.83zm-269.03 -573.43c-9.45,57.97 -0.83,129.72 28.09,201.2 28.91,71.47 72.6,129.04 119.7,164.14 0.97,0.72 1.27,2.01 0.72,3.09 -0.54,1.07 -1.75,1.59 -2.9,1.24 -61.01,-18.42 -120.01,-75.16 -152.1,-154.48 -32.09,-79.33 -29.13,-161.13 1.91,-216.79 0.59,-1.05 1.82,-1.52 2.96,-1.13 1.14,0.39 1.82,1.53 1.62,2.72z"/>
  <path class="fil1" d="M4652.12 2070.01c-220,533.38 -1041.49,560.89 -827.58,1323.06 272,-144.52 498.08,-417.84 638.14,-763.84 -38.99,309.81 -204.34,607.27 -499.46,840.79 701.34,-49.01 1073.44,-763.2 688.9,-1400.01z"/>
  <path class="fil1" d="M3759.45 2383.3c-20.8,-123.46 -100.56,-222.27 -205.57,-272.43 -82.77,81.8 -125.76,201.27 -104.99,324.72 20.81,123.45 100.56,222.26 205.55,272.43 82.79,-81.79 125.79,-201.27 105.01,-324.72z"/>
  <path class="fil2" d="M3099.91 2452.23c148.86,377.3 740.39,393.84 531.11,962.05 -7.56,0.15 -15.11,0.18 -22.7,0.09 -511.95,-6.52 -786.68,-516.97 -508.4,-962.14z"/>
  <path class="fil3" d="M4981.03 2183.01c48.92,-8.25 95.26,24.75 103.51,73.65 8.22,48.92 -24.75,95.26 -73.67,103.51 -48.89,8.22 -95.26,-24.75 -103.48,-73.67 -8.25,-48.9 24.75,-95.26 73.64,-103.48z"/>
  <path class="fil3" d="M3976.35 2306.48c48.92,-8.25 95.26,24.75 103.51,73.65 8.22,48.91 -24.75,95.26 -73.67,103.49 -48.9,8.24 -95.26,-24.75 -103.48,-73.66 -8.25,-48.9 24.75,-95.27 73.65,-103.49z"/>
  <path class="fil3" d="M2889.9 2346.34c31.45,-5.3 61.23,15.93 66.53,47.37 5.3,31.44 -15.91,61.23 -47.35,66.53 -31.45,5.29 -61.24,-15.91 -66.53,-47.36 -5.3,-31.44 15.91,-61.24 47.35,-66.54z"/>
  <path class="fil4" d="M1662.52 4234.42l-30.32 0c-46.01,0 -71.81,9.25 -76.76,27.74 -2.58,8.82 -3.87,71.17 -3.87,187.05l0 235.64 -0.65 30.96c0,10.54 0,20.85 0,31.39l-0.43 30.96c0,10.54 0,20.85 0,31.39l-0.65 41.06 0 30.75c0,43.65 6.02,70.74 18.27,81.06 12.04,10.32 41.71,15.27 88.8,15.27l10.1 -0.43c87.72,0 157.81,-29.02 210.28,-87.07 26.45,-29.03 47.3,-66.86 62.35,-113.74 15.05,-46.66 22.79,-94.39 22.79,-142.55l0 -45.36c0,-44.94 -6.88,-90.95 -20.21,-138.03 -27.74,-94.82 -82.56,-159.75 -164.48,-194.58 -33.11,-14.19 -71.59,-21.5 -115.24,-21.5zm-13.76 -67.94l32.68 0c210.27,0.43 348.73,82.56 415.17,246.39 21.72,53.75 32.68,110.51 32.68,170.71l0 17.63c0,69.66 -11.61,132.23 -34.61,187.7 -45.37,108.36 -125.13,184.48 -239.3,228.55 -52.67,20.21 -110.51,30.32 -173.94,30.32l-47.3 0 -15.7 -0.65 -32.04 -0.65c-10.54,-0.43 -21.28,-0.65 -32.25,-0.65l-92.67 -1.94c-93.96,0 -141.04,-6.88 -141.04,-20.85 0,-13.76 9.03,-25.37 27.09,-34.62 31.18,-15.91 49.02,-28.59 53.54,-37.84 10.11,-19.14 15.27,-63.21 15.27,-132.23l0 -298.43 -1.29 -79.98 -1.29 -63.64c0,-56.33 -4.95,-92.02 -14.84,-107.07 -9.89,-15.26 -25.58,-27.31 -47.3,-36.34 -21.5,-9.03 -32.46,-20.21 -32.46,-33.75 0,-15.91 32.25,-23.87 96.54,-23.87l60.42 -1.29 15.05 -1.29 15.26 -0.65c90.52,-3.65 138.03,-5.59 142.33,-5.59z"/>
  <path id="_1" class="fil4" d="M2486.42 4236.36c0,18.49 -7.95,35.69 -23.65,51.39 -15.7,15.69 -31.39,23.65 -46.87,23.65 -3.44,0.86 -6.24,1.29 -8.17,1.29l-13.97 1.29c-20.85,0 -39.78,-7.09 -56.33,-20.85 -16.55,-13.97 -24.94,-31.82 -24.94,-53.54l0 -11.4c0,-21.71 8.82,-40.2 26.23,-55.04 17.42,-14.84 37.41,-22.36 60.2,-22.36l3.01 0 21.5 2.58c12.9,0 26.45,6.88 40.64,21.07 13.97,13.97 21.07,28.16 21.07,42.35l1.29 5.81 0 13.76zm-200.38 281.01c-21.72,-10.54 -32.68,-20.43 -32.68,-29.67 0,-9.25 4.3,-16.55 13.12,-21.93 30.75,-18.49 79.34,-27.73 145.56,-27.73l18.27 0c22.79,0 35.48,10.53 38.49,31.39 1.72,11.39 2.58,87.72 2.58,228.97 0,141.26 2.79,222.31 8.81,243.17 5.81,20.85 19.78,36.77 42.14,47.95 22.15,10.97 33.33,22.36 33.33,33.54 0,16.13 -52.03,24.08 -156.09,24.08l-18.92 0.65 -76.97 0c-30.53,0 -46.01,-7.53 -46.01,-22.79 0,-12.47 9.46,-24.73 28.16,-36.55 18.71,-11.61 31.61,-24.73 38.7,-38.92 7.95,-15.69 12.04,-52.03 12.04,-109l0.65 -20.21 0 -19.56 0.43 -29.45 0 -19.56 0.65 -19.56c0,-99.55 -3.23,-157.6 -9.67,-174.15 -6.45,-16.56 -20.64,-30.1 -42.57,-40.64z"/>
  <path id="_2" class="fil4" d="M3055.74 4635.83l0 -19.56c0,-31.17 -10.96,-59.13 -33.33,-84.06 -22.15,-24.94 -49.45,-37.63 -81.91,-37.63l-11.83 0c-6.02,0.86 -9.89,1.29 -12.04,1.29 -29.45,0 -57.19,16.77 -83.42,50.52 -26.23,33.54 -39.35,69.45 -39.35,107.72l0 8.17c0,13.33 7.95,20 23.86,20 6.24,1.29 9.67,1.94 10.11,1.94l14.4 0.64 3.87 0 4.3 -0.64 121.69 -6.88 22.58 -2.58c40.85,0 61.06,-12.9 61.06,-38.92zm-261.87 166.84c0,47.95 18.06,87.94 54.18,120.4 36.12,32.25 81.92,48.38 137.17,48.38 22.36,0 42.57,-3.23 60.85,-9.67 18.27,-6.45 38.27,-14.41 59.77,-23.65 21.72,-9.25 35.26,-13.97 40.64,-13.97 16.77,0 25.37,9.03 25.37,27.09 0,24.51 -31.18,50.53 -93.31,78.26 -40.42,18.06 -83.64,27.09 -129.86,27.09l-13.76 0c-78.91,0 -144.49,-24.08 -196.51,-71.81 -28.16,-26.02 -50.1,-59.34 -65.58,-99.97 -15.48,-40.42 -23.22,-84.07 -23.22,-130.72l0.65 -14.41 0 -14.4c0,-40.42 9.25,-79.98 27.74,-119.11 18.92,-39.13 41.28,-71.16 67.3,-96.32 55.04,-52.89 120.4,-79.55 195.87,-79.98 114.17,0 190.28,44.5 228.12,133.52 11.83,28.16 17.63,53.96 17.63,77.4l0 12.68c0,28.81 -12.04,48.38 -35.9,58.27 -24.08,9.89 -80.41,17.85 -169.42,24.08 -89.01,6.45 -137.39,10.54 -144.91,12.68 -28.59,7.1 -42.78,25.15 -42.78,54.18z"/>
  <path id="_3" class="fil4" d="M3573.04 4961.99l95.67 -14.4c10.96,0 16.34,8.38 16.34,25.58 0,16.98 -16.13,34.4 -48.38,52.46 -32.46,18.06 -66.44,27.09 -102.13,27.09l-12.68 0c-28.16,0 -53.54,-7.31 -76.11,-21.93 -22.79,-14.83 -39.35,-32.89 -49.88,-54.18 -18.06,-37.41 -27.09,-108.36 -27.09,-212.64 0,-104.28 -3.65,-169.64 -10.97,-195.65 -7.31,-26.02 -16.77,-43.86 -28.59,-53.54 -21.93,-17.63 -32.9,-27.31 -32.9,-29.03 0,-10.75 5.81,-20 17.2,-27.52 28.81,-19.35 44.72,-30.53 47.52,-33.11 2.58,-2.79 18.71,-37.19 48.16,-102.98 14.62,-32.9 31.39,-49.24 50.1,-49.24 18.7,0 31.17,6.66 37.41,20.21 1.72,3.44 5.37,21.5 10.96,54.83 5.8,33.11 13.76,54.4 24.29,63.86 10.54,9.46 33.76,18.49 69.88,27.09 36.12,8.6 54.18,20.85 54.18,36.98 0,15.91 -19.78,27.74 -59.77,35.91 -39.99,7.95 -64.07,18.06 -72.46,30.75 -14.62,21.5 -21.93,81.92 -21.93,181.46 0,99.55 4.52,162.33 13.76,188.34 11.83,33.11 30.96,49.66 57.41,49.66z"/>
  <path id="_4" class="fil5" d="M4109.05 4753.66l-10.75 0c-55.04,0 -100.84,12.25 -137.6,36.76 -36.77,24.51 -55.04,55.04 -55.04,91.59l0 12.69c0,21.28 6.45,40.64 19.78,57.62 13.12,16.98 30.32,25.37 51.38,25.37l7.53 1.29 18.92 0c43.65,0 79.34,-17.85 107.07,-53.54 12.04,-15.48 18.28,-47.3 18.28,-95.68 0,-3.87 0,-7.53 0,-11.39l0.65 -15.05 0 -15.05c0,-23.22 -6.88,-34.61 -20.21,-34.61zm-306.17 -203.61c0,-30.96 24.73,-58.91 73.96,-83.42 49.45,-24.51 100.62,-36.76 153.51,-36.76 1.72,0 3.23,0 4.95,0 50.53,0 90.73,6.02 121.05,18.27 61.27,24.3 96.32,75.9 105.14,154.8 0.86,7.95 1.29,60.85 1.29,158.46 0,97.61 2.58,154.8 7.74,171.57 5.38,16.99 19.56,29.24 43,37.2 23.22,7.95 34.83,15.69 34.83,22.79 0,15.05 -7.53,26.66 -22.58,34.62 -30.31,15.91 -59.98,23.86 -89.23,23.86 -29.24,0 -50.95,-6.66 -65.15,-20.21 -25.58,-23.87 -39.35,-35.69 -40.85,-35.69 -1.72,0 -25.59,10.54 -71.38,31.6 -45.58,21.29 -85.79,31.82 -120.19,31.82 -51.6,0 -92.24,-14.19 -121.69,-42.79 -29.24,-28.59 -44.08,-63.21 -44.08,-103.85l0 -15.7c0,-43.86 18.92,-82.13 56.76,-115.46 37.84,-33.11 105.78,-58.91 204.04,-77.4 35.69,-6.66 58.26,-12.9 67.51,-18.92 18.49,-11.61 27.74,-35.69 27.74,-71.81 0,-36.12 -9.68,-63.86 -29.03,-82.99 -19.35,-19.35 -45.15,-29.03 -77.4,-29.03 -32.47,0 -63.64,18.71 -93.74,56.33 -29.88,37.63 -57.41,56.33 -82.13,56.33 -29.45,0 -44.07,-21.07 -44.07,-63.64z"/>
  <path id="_5" class="fil5" d="M4536.69 5040.25c-59.13,0 -88.8,-8.6 -88.8,-25.37 0,-13.76 7.74,-25.15 23.22,-33.97 28.16,-15.91 44.51,-30.31 49.24,-43.21 4.52,-12.69 6.88,-73.32 6.88,-181.89 0,-108.57 -3.23,-172.22 -9.67,-190.92 -6.66,-18.7 -18.49,-34.18 -35.69,-46.22 -17.2,-12.26 -25.8,-22.15 -25.8,-29.67 0,-7.53 5.59,-14.62 16.98,-21.5 26.45,-15.48 68.37,-23.22 125.99,-23.22 17.2,0 30.75,5.81 40.42,17.63 3.22,4.3 7.95,13.33 13.97,27.52 6.24,13.97 10.32,21.07 12.47,21.07 7.95,-0.43 20.21,-6.24 36.98,-16.99 58.05,-39.13 110.51,-58.69 157.6,-58.69l1.29 0 20 0c34.18,0 64.72,8.38 92.02,25.15 27.31,16.77 48.38,42.14 63.43,75.68 14.84,33.54 22.36,106.64 22.36,219.52 0,112.66 2.36,175.66 7.1,188.99 4.94,13.12 18.49,25.37 41.06,36.76 22.36,11.4 33.54,22.58 33.54,33.33 0,18.92 -59.56,28.38 -178.88,28.38l-18.71 0c-37.84,0 -56.76,-9.03 -56.76,-27.09 0,-3.65 4.51,-12.9 13.76,-27.3 9.25,-14.62 15.7,-30.53 18.92,-48.16 3.44,-17.63 5.16,-75.68 5.16,-174.15 0,-98.47 -6.24,-161.9 -18.27,-190.06 -16.77,-38.49 -44.72,-57.84 -83.85,-57.84 -28.6,0 -56.12,6.66 -82.77,19.78 -26.66,13.33 -46.01,32.04 -58.05,56.12 -11.83,24.08 -17.85,81.92 -17.85,173.29 0,91.16 2.58,146.42 7.53,165.55 4.95,19.14 11.18,34.61 18.27,46.23l23.22 37.84c0,16.34 -32.89,24.51 -98.9,24.51l-38.27 -1.07 -39.13 0z"/>
  <path id="_6" class="fil5" d="M5694.27 4613.04c-17.63,0 -41.93,-18.27 -73.32,-54.83 -31.17,-36.55 -67.3,-54.83 -108.36,-54.83 -40.85,0 -75.25,20.43 -102.99,60.85 -27.74,40.64 -41.49,98.04 -41.49,172.22 0,74.39 16.98,132.44 51.38,174.15 34.19,41.93 78.69,62.78 133.73,62.78 30.32,0 55.47,-3.87 75.9,-11.4 20.43,-7.53 39.35,-15.69 56.76,-24.29 17.41,-8.6 29.67,-12.9 36.76,-12.9 12.25,0 18.27,8.17 18.27,24.08 0,24.29 -24.51,48.37 -73.75,72.46 -49.02,23.86 -96.75,35.9 -142.98,35.9 -89.87,0 -162.11,-28.16 -216.51,-84.49 -22.36,-23.01 -41.06,-52.89 -56.12,-89.23 -15.26,-36.12 -22.79,-75.25 -22.79,-116.75l0 -30.96c0,-0.65 0,-1.72 0,-3.01 0,-0.86 0,-1.72 0,-2.58 0,-36.55 8.17,-74.39 24.73,-113.31 32.25,-76.54 84.28,-129.43 156.09,-158.67 41.71,-16.99 82.99,-25.37 124.06,-25.37l14.62 0c56.55,0 104.71,9.89 144.27,29.67 31.82,15.91 47.73,42.57 47.73,79.98 0,24.73 -4.95,42.78 -14.84,53.96 -9.67,10.96 -20.21,16.55 -31.17,16.55z"/>
  <path id="_7" class="fil5" d="M6244.67 4635.83l0 -19.56c0,-31.17 -10.96,-59.13 -33.33,-84.06 -22.15,-24.94 -49.45,-37.63 -81.91,-37.63l-11.83 0c-6.02,0.86 -9.89,1.29 -12.04,1.29 -29.45,0 -57.19,16.77 -83.42,50.52 -26.23,33.54 -39.35,69.45 -39.35,107.72l0 8.17c0,13.33 7.95,20 23.86,20 6.24,1.29 9.67,1.94 10.11,1.94l14.4 0.64 3.87 0 4.3 -0.64 121.69 -6.88 22.58 -2.58c40.85,0 61.06,-12.9 61.06,-38.92zm-261.87 166.84c0,47.95 18.06,87.94 54.18,120.4 36.12,32.25 81.92,48.38 137.17,48.38 22.36,0 42.57,-3.23 60.85,-9.67 18.27,-6.45 38.27,-14.41 59.77,-23.65 21.72,-9.25 35.26,-13.97 40.64,-13.97 16.77,0 25.37,9.03 25.37,27.09 0,24.51 -31.18,50.53 -93.31,78.26 -40.42,18.06 -83.64,27.09 -129.86,27.09l-13.76 0c-78.91,0 -144.49,-24.08 -196.51,-71.81 -28.16,-26.02 -50.1,-59.34 -65.58,-99.97 -15.48,-40.42 -23.22,-84.07 -23.22,-130.72l0.65 -14.41 0 -14.4c0,-40.42 9.25,-79.98 27.74,-119.11 18.92,-39.13 41.28,-71.16 67.3,-96.32 55.04,-52.89 120.4,-79.55 195.87,-79.98 114.17,0 190.28,44.5 228.12,133.52 11.83,28.16 17.63,53.96 17.63,77.4l0 12.68c0,28.81 -12.04,48.38 -35.9,58.27 -24.08,9.89 -80.41,17.85 -169.42,24.08 -89.01,6.45 -137.39,10.54 -144.91,12.68 -28.59,7.1 -42.78,25.15 -42.78,54.18z"/>
 </g>
</svg>
