<?xml version="1.0" encoding="UTF-8"?>
<!DOCTYPE svg PUBLIC "-//W3C//DTD SVG 1.1//EN" "http://www.w3.org/Graphics/SVG/1.1/DTD/svg11.dtd">
<!-- Creator: CorelDRAW -->
<svg xmlns="http://www.w3.org/2000/svg" xml:space="preserve" width="7.70059in" height="7.70059in" version="1.1" style="shape-rendering:geometricPrecision; text-rendering:geometricPrecision; image-rendering:optimizeQuality; fill-rule:evenodd; clip-rule:evenodd"
viewBox="0 0 7694.98 7694.98"
 xmlns:xlink="http://www.w3.org/1999/xlink"
 xmlns:xodm="http://www.corel.com/coreldraw/odm/2003">
 <defs>
  <style type="text/css">
   <![CDATA[
    .fil0 {fill:none}
    .fil1 {fill:#A58B7A}
    .fil2 {fill:#CBB9A5}
    .fil3 {fill:#E9DEC8}
    .fil6 {fill:#333333;fill-rule:nonzero}
    .fil4 {fill:#A58B7A;fill-rule:nonzero}
    .fil5 {fill:#CBB9A5;fill-rule:nonzero}
   ]]>
  </style>
 </defs>
 <g id="Layer_x0020_1">
  <metadata id="CorelCorpID_0Corel-Layer"/>
  <rect class="fil0" width="7694.98" height="7694.98"/>
  <path class="fil1" d="M2725.29 3201.24c133.81,271.96 371.01,548.77 709.05,673.47 584.64,215.68 1231.69,-66.57 1537.98,-606.85 30.86,-54.44 51.58,-116.23 110.5,-147.45 54.68,-28.97 114.83,-32.89 133.95,-101.36 45.13,-161.67 69.01,-232.52 109.72,-395.37 13.58,-54.24 -40.53,-71.86 -58.86,-18.84l-102.37 295.84c-11.11,32.13 -29.66,38.52 -44.71,33.3 -16.02,-5.56 -27.85,-24.84 -15.99,-59.12l96.98 -280.35c11.86,-34.27 13.94,-46.32 -12.22,-63.37 -31.13,-2.77 -36.95,7.99 -48.78,42.26l-97.01 280.35c-11.87,34.28 -33.09,42.11 -49.11,36.59 -15.05,-5.19 -25.71,-21.67 -14.57,-53.8l102.34 -295.84c18.36,-53.03 -35.05,-72.6 -57.93,-21.57 -68.62,153.18 -93.64,223.64 -158.04,378.65 -46.34,111.45 107.12,168.11 18.79,289.19 -470.68,645.23 -1488.81,647.91 -2040.61,-38.07 -59.63,-74.13 -59.43,-90.45 -16.35,-179.53 36.39,-75.27 38.58,-178.5 -1.77,-278.22 -64.63,-159.79 -213.97,-250.16 -333.47,-201.82 -119.5,48.33 -163.99,217.12 -99.36,376.9 40.34,99.73 113.69,172.41 192.18,201.2 89.48,32.82 100.34,53.9 139.67,133.83zm-269.03 -573.43c-9.45,57.97 -0.83,129.72 28.09,201.2 28.91,71.47 72.6,129.04 119.7,164.14 0.97,0.72 1.27,2.01 0.72,3.09 -0.54,1.07 -1.75,1.59 -2.9,1.24 -61.01,-18.42 -120.01,-75.16 -152.1,-154.48 -32.09,-79.33 -29.13,-161.13 1.91,-216.79 0.59,-1.05 1.82,-1.52 2.96,-1.13 1.14,0.39 1.82,1.53 1.62,2.72z"/>
  <path class="fil1" d="M4652.12 2070.01c-220,533.38 -1041.49,560.89 -827.58,1323.06 272,-144.52 498.08,-417.84 638.14,-763.84 -38.99,309.81 -204.34,607.27 -499.46,840.79 701.34,-49.01 1073.44,-763.2 688.9,-1400.01z"/>
  <path class="fil1" d="M3759.45 2383.3c-20.8,-123.46 -100.56,-222.27 -205.57,-272.43 -82.77,81.8 -125.76,201.27 -104.99,324.72 20.81,123.45 100.56,222.26 205.55,272.43 82.79,-81.79 125.79,-201.27 105.01,-324.72z"/>
  <path class="fil2" d="M3099.91 2452.23c148.86,377.3 740.39,393.84 531.11,962.05 -7.56,0.15 -15.11,0.18 -22.7,0.09 -511.95,-6.52 -786.68,-516.97 -508.4,-962.14z"/>
  <path class="fil3" d="M4981.03 2183.01c48.92,-8.25 95.26,24.75 103.51,73.65 8.22,48.92 -24.75,95.26 -73.67,103.51 -48.89,8.22 -95.26,-24.75 -103.48,-73.67 -8.25,-48.9 24.75,-95.26 73.64,-103.48z"/>
  <path class="fil3" d="M3976.35 2306.48c48.92,-8.25 95.26,24.75 103.51,73.65 8.22,48.91 -24.75,95.26 -73.67,103.49 -48.9,8.24 -95.26,-24.75 -103.48,-73.66 -8.25,-48.9 24.75,-95.27 73.65,-103.49z"/>
  <path class="fil3" d="M2889.9 2346.34c31.45,-5.3 61.23,15.93 66.53,47.37 5.3,31.44 -15.91,61.23 -47.35,66.53 -31.45,5.29 -61.24,-15.91 -66.53,-47.36 -5.3,-31.44 15.91,-61.24 47.35,-66.54z"/>
  <path class="fil4" d="M1662.52 4234.42l-30.32 0c-46.01,0 -71.81,9.25 -76.76,27.74 -2.58,8.82 -3.87,71.17 -3.87,187.05l0 235.64 -0.65 30.96c0,10.54 0,20.85 0,31.39l-0.43 30.96c0,10.54 0,20.85 0,31.39l-0.65 41.06 0 30.75c0,43.65 6.02,70.74 18.27,81.06 12.04,10.32 41.71,15.27 88.8,15.27l10.1 -0.43c87.72,0 157.81,-29.02 210.28,-87.07 26.45,-29.03 47.3,-66.86 62.35,-113.74 15.05,-46.66 22.79,-94.39 22.79,-142.55l0 -45.36c0,-44.94 -6.88,-90.95 -20.21,-138.03 -27.74,-94.82 -82.56,-159.75 -164.48,-194.58 -33.11,-14.19 -71.59,-21.5 -115.24,-21.5zm-13.76 -67.94l32.68 0c210.27,0.43 348.73,82.56 415.17,246.39 21.72,53.75 32.68,110.51 32.68,170.71l0 17.63c0,69.66 -11.61,132.23 -34.61,187.7 -45.37,108.36 -125.13,184.48 -239.3,228.55 -52.67,20.21 -110.51,30.32 -173.94,30.32l-47.3 0 -15.7 -0.65 -32.04 -0.65c-10.54,-0.43 -21.28,-0.65 -32.25,-0.65l-92.67 -1.94c-93.96,0 -141.04,-6.88 -141.04,-20.85 0,-13.76 9.03,-25.37 27.09,-34.62 31.18,-15.91 49.02,-28.59 53.54,-37.84 10.11,-19.14 15.27,-63.21 15.27,-132.23l0 -298.43 -1.29 -79.98 -1.29 -63.64c0,-56.33 -4.95,-92.02 -14.84,-107.07 -9.89,-15.26 -25.58,-27.31 -47.3,-36.34 -21.5,-9.03 -32.46,-20.21 -32.46,-33.75 0,-15.91 32.25,-23.87 96.54,-23.87l60.42 -1.29 15.05 -1.29 15.26 -0.65c90.52,-3.65 138.03,-5.59 142.33,-5.59z"/>
  <path id="_1" class="fil4" d="M2486.42 4236.36c0,18.49 -7.95,35.69 -23.65,51.39 -15.7,15.69 -31.39,23.65 -46.87,23.65 -3.44,0.86 -6.24,1.29 -8.17,1.29l-13.97 1.29c-20.85,0 -39.78,-7.09 -56.33,-20.85 -16.55,-13.97 -24.94,-31.82 -24.94,-53.54l0 -11.4c0,-21.71 8.82,-40.2 26.23,-55.04 17.42,-14.84 37.41,-22.36 60.2,-22.36l3.01 0 21.5 2.58c12.9,0 26.45,6.88 40.64,21.07 13.97,13.97 21.07,28.16 21.07,42.35l1.29 5.81 0 13.76zm-200.38 281.01c-21.72,-10.54 -32.68,-20.43 -32.68,-29.67 0,-9.25 4.3,-16.55 13.12,-21.93 30.75,-18.49 79.34,-27.73 145.56,-27.73l18.27 0c22.79,0 35.48,10.53 38.49,31.39 1.72,11.39 2.58,87.72 2.58,228.97 0,141.26 2.79,222.31 8.81,243.17 5.81,20.85 19.78,36.77 42.14,47.95 22.15,10.97 33.33,22.36 33.33,33.54 0,16.13 -52.03,24.08 -156.09,24.08l-18.92 0.65 -76.97 0c-30.53,0 -46.01,-7.53 -46.01,-22.79 0,-12.47 9.46,-24.73 28.16,-36.55 18.71,-11.61 31.61,-24.73 38.7,-38.92 7.95,-15.69 12.04,-52.03 12.04,-109l0.65 -20.21 0 -19.56 0.43 -29.45 0 -19.56 0.65 -19.56c0,-99.55 -3.23,-157.6 -9.67,-174.15 -6.45,-16.56 -20.64,-30.1 -42.57,-40.64z"/>
  <path id="_2" class="fil4" d="M3055.74 4635.83l0 -19.56c0,-31.17 -10.96,-59.13 -33.33,-84.06 -22.15,-24.94 -49.45,-37.63 -81.91,-37.63l-11.83 0c-6.02,0.86 -9.89,1.29 -12.04,1.29 -29.45,0 -57.19,16.77 -83.42,50.52 -26.23,33.54 -39.35,69.45 -39.35,107.72l0 8.17c0,13.33 7.95,20 23.86,20 6.24,1.29 9.67,1.94 10.11,1.94l14.4 0.64 3.87 0 4.3 -0.64 121.69 -6.88 22.58 -2.58c40.85,0 61.06,-12.9 61.06,-38.92zm-261.87 166.84c0,47.95 18.06,87.94 54.18,120.4 36.12,32.25 81.92,48.38 137.17,48.38 22.36,0 42.57,-3.23 60.85,-9.67 18.27,-6.45 38.27,-14.41 59.77,-23.65 21.72,-9.25 35.26,-13.97 40.64,-13.97 16.77,0 25.37,9.03 25.37,27.09 0,24.51 -31.18,50.53 -93.31,78.26 -40.42,18.06 -83.64,27.09 -129.86,27.09l-13.76 0c-78.91,0 -144.49,-24.08 -196.51,-71.81 -28.16,-26.02 -50.1,-59.34 -65.58,-99.97 -15.48,-40.42 -23.22,-84.07 -23.22,-130.72l0.65 -14.41 0 -14.4c0,-40.42 9.25,-79.98 27.74,-119.11 18.92,-39.13 41.28,-71.16 67.3,-96.32 55.04,-52.89 120.4,-79.55 195.87,-79.98 114.17,0 190.28,44.5 228.12,133.52 11.83,28.16 17.63,53.96 17.63,77.4l0 12.68c0,28.81 -12.04,48.38 -35.9,58.27 -24.08,9.89 -80.41,17.85 -169.42,24.08 -89.01,6.45 -137.39,10.54 -144.91,12.68 -28.59,7.1 -42.78,25.15 -42.78,54.18z"/>
  <path id="_3" class="fil4" d="M3573.04 4961.99l95.67 -14.4c10.96,0 16.34,8.38 16.34,25.58 0,16.98 -16.13,34.4 -48.38,52.46 -32.46,18.06 -66.44,27.09 -102.13,27.09l-12.68 0c-28.16,0 -53.54,-7.31 -76.11,-21.93 -22.79,-14.83 -39.35,-32.89 -49.88,-54.18 -18.06,-37.41 -27.09,-108.36 -27.09,-212.64 0,-104.28 -3.65,-169.64 -10.97,-195.65 -7.31,-26.02 -16.77,-43.86 -28.59,-53.54 -21.93,-17.63 -32.9,-27.31 -32.9,-29.03 0,-10.75 5.81,-20 17.2,-27.52 28.81,-19.35 44.72,-30.53 47.52,-33.11 2.58,-2.79 18.71,-37.19 48.16,-102.98 14.62,-32.9 31.39,-49.24 50.1,-49.24 18.7,0 31.17,6.66 37.41,20.21 1.72,3.44 5.37,21.5 10.96,54.83 5.8,33.11 13.76,54.4 24.29,63.86 10.54,9.46 33.76,18.49 69.88,27.09 36.12,8.6 54.18,20.85 54.18,36.98 0,15.91 -19.78,27.74 -59.77,35.91 -39.99,7.95 -64.07,18.06 -72.46,30.75 -14.62,21.5 -21.93,81.92 -21.93,181.46 0,99.55 4.52,162.33 13.76,188.34 11.83,33.11 30.96,49.66 57.41,49.66z"/>
  <path id="_4" class="fil5" d="M4109.05 4753.66l-10.75 0c-55.04,0 -100.84,12.25 -137.6,36.76 -36.77,24.51 -55.04,55.04 -55.04,91.59l0 12.69c0,21.28 6.45,40.64 19.78,57.62 13.12,16.98 30.32,25.37 51.38,25.37l7.53 1.29 18.92 0c43.65,0 79.34,-17.85 107.07,-53.54 12.04,-15.48 18.28,-47.3 18.28,-95.68 0,-3.87 0,-7.53 0,-11.39l0.65 -15.05 0 -15.05c0,-23.22 -6.88,-34.61 -20.21,-34.61zm-306.17 -203.61c0,-30.96 24.73,-58.91 73.96,-83.42 49.45,-24.51 100.62,-36.76 153.51,-36.76 1.72,0 3.23,0 4.95,0 50.53,0 90.73,6.02 121.05,18.27 61.27,24.3 96.32,75.9 105.14,154.8 0.86,7.95 1.29,60.85 1.29,158.46 0,97.61 2.58,154.8 7.74,171.57 5.38,16.99 19.56,29.24 43,37.2 23.22,7.95 34.83,15.69 34.83,22.79 0,15.05 -7.53,26.66 -22.58,34.62 -30.31,15.91 -59.98,23.86 -89.23,23.86 -29.24,0 -50.95,-6.66 -65.15,-20.21 -25.58,-23.87 -39.35,-35.69 -40.85,-35.69 -1.72,0 -25.59,10.54 -71.38,31.6 -45.58,21.29 -85.79,31.82 -120.19,31.82 -51.6,0 -92.24,-14.19 -121.69,-42.79 -29.24,-28.59 -44.08,-63.21 -44.08,-103.85l0 -15.7c0,-43.86 18.92,-82.13 56.76,-115.46 37.84,-33.11 105.78,-58.91 204.04,-77.4 35.69,-6.66 58.26,-12.9 67.51,-18.92 18.49,-11.61 27.74,-35.69 27.74,-71.81 0,-36.12 -9.68,-63.86 -29.03,-82.99 -19.35,-19.35 -45.15,-29.03 -77.4,-29.03 -32.47,0 -63.64,18.71 -93.74,56.33 -29.88,37.63 -57.41,56.33 -82.13,56.33 -29.45,0 -44.07,-21.07 -44.07,-63.64z"/>
  <path id="_5" class="fil5" d="M4536.69 5040.25c-59.13,0 -88.8,-8.6 -88.8,-25.37 0,-13.76 7.74,-25.15 23.22,-33.97 28.16,-15.91 44.51,-30.31 49.24,-43.21 4.52,-12.69 6.88,-73.32 6.88,-181.89 0,-108.57 -3.23,-172.22 -9.67,-190.92 -6.66,-18.7 -18.49,-34.18 -35.69,-46.22 -17.2,-12.26 -25.8,-22.15 -25.8,-29.67 0,-7.53 5.59,-14.62 16.98,-21.5 26.45,-15.48 68.37,-23.22 125.99,-23.22 17.2,0 30.75,5.81 40.42,17.63 3.22,4.3 7.95,13.33 13.97,27.52 6.24,13.97 10.32,21.07 12.47,21.07 7.95,-0.43 20.21,-6.24 36.98,-16.99 58.05,-39.13 110.51,-58.69 157.6,-58.69l1.29 0 20 0c34.18,0 64.72,8.38 92.02,25.15 27.31,16.77 48.38,42.14 63.43,75.68 14.84,33.54 22.36,106.64 22.36,219.52 0,112.66 2.36,175.66 7.1,188.99 4.94,13.12 18.49,25.37 41.06,36.76 22.36,11.4 33.54,22.58 33.54,33.33 0,18.92 -59.56,28.38 -178.88,28.38l-18.71 0c-37.84,0 -56.76,-9.03 -56.76,-27.09 0,-3.65 4.51,-12.9 13.76,-27.3 9.25,-14.62 15.7,-30.53 18.92,-48.16 3.44,-17.63 5.16,-75.68 5.16,-174.15 0,-98.47 -6.24,-161.9 -18.27,-190.06 -16.77,-38.49 -44.72,-57.84 -83.85,-57.84 -28.6,0 -56.12,6.66 -82.77,19.78 -26.66,13.33 -46.01,32.04 -58.05,56.12 -11.83,24.08 -17.85,81.92 -17.85,173.29 0,91.16 2.58,146.42 7.53,165.55 4.95,19.14 11.18,34.61 18.27,46.23l23.22 37.84c0,16.34 -32.89,24.51 -98.9,24.51l-38.27 -1.07 -39.13 0z"/>
  <path id="_6" class="fil5" d="M5694.27 4613.04c-17.63,0 -41.93,-18.27 -73.32,-54.83 -31.17,-36.55 -67.3,-54.83 -108.36,-54.83 -40.85,0 -75.25,20.43 -102.99,60.85 -27.74,40.64 -41.49,98.04 -41.49,172.22 0,74.39 16.98,132.44 51.38,174.15 34.19,41.93 78.69,62.78 133.73,62.78 30.32,0 55.47,-3.87 75.9,-11.4 20.43,-7.53 39.35,-15.69 56.76,-24.29 17.41,-8.6 29.67,-12.9 36.76,-12.9 12.25,0 18.27,8.17 18.27,24.08 0,24.29 -24.51,48.37 -73.75,72.46 -49.02,23.86 -96.75,35.9 -142.98,35.9 -89.87,0 -162.11,-28.16 -216.51,-84.49 -22.36,-23.01 -41.06,-52.89 -56.12,-89.23 -15.26,-36.12 -22.79,-75.25 -22.79,-116.75l0 -30.96c0,-0.65 0,-1.72 0,-3.01 0,-0.86 0,-1.72 0,-2.58 0,-36.55 8.17,-74.39 24.73,-113.31 32.25,-76.54 84.28,-129.43 156.09,-158.67 41.71,-16.99 82.99,-25.37 124.06,-25.37l14.62 0c56.55,0 104.71,9.89 144.27,29.67 31.82,15.91 47.73,42.57 47.73,79.98 0,24.73 -4.95,42.78 -14.84,53.96 -9.67,10.96 -20.21,16.55 -31.17,16.55z"/>
  <path id="_7" class="fil5" d="M6244.67 4635.83l0 -19.56c0,-31.17 -10.96,-59.13 -33.33,-84.06 -22.15,-24.94 -49.45,-37.63 -81.91,-37.63l-11.83 0c-6.02,0.86 -9.89,1.29 -12.04,1.29 -29.45,0 -57.19,16.77 -83.42,50.52 -26.23,33.54 -39.35,69.45 -39.35,107.72l0 8.17c0,13.33 7.95,20 23.86,20 6.24,1.29 9.67,1.94 10.11,1.94l14.4 0.64 3.87 0 4.3 -0.64 121.69 -6.88 22.58 -2.58c40.85,0 61.06,-12.9 61.06,-38.92zm-261.87 166.84c0,47.95 18.06,87.94 54.18,120.4 36.12,32.25 81.92,48.38 137.17,48.38 22.36,0 42.57,-3.23 60.85,-9.67 18.27,-6.45 38.27,-14.41 59.77,-23.65 21.72,-9.25 35.26,-13.97 40.64,-13.97 16.77,0 25.37,9.03 25.37,27.09 0,24.51 -31.18,50.53 -93.31,78.26 -40.42,18.06 -83.64,27.09 -129.86,27.09l-13.76 0c-78.91,0 -144.49,-24.08 -196.51,-71.81 -28.16,-26.02 -50.1,-59.34 -65.58,-99.97 -15.48,-40.42 -23.22,-84.07 -23.22,-130.72l0.65 -14.41 0 -14.4c0,-40.42 9.25,-79.98 27.74,-119.11 18.92,-39.13 41.28,-71.16 67.3,-96.32 55.04,-52.89 120.4,-79.55 195.87,-79.98 114.17,0 190.28,44.5 228.12,133.52 11.83,28.16 17.63,53.96 17.63,77.4l0 12.68c0,28.81 -12.04,48.38 -35.9,58.27 -24.08,9.89 -80.41,17.85 -169.42,24.08 -89.01,6.45 -137.39,10.54 -144.91,12.68 -28.59,7.1 -42.78,25.15 -42.78,54.18z"/>
  <path class="fil6" d="M1573.86 5517.58c0,17.32 -0.57,27.42 -1.65,30.31 -1.13,2.84 -3.61,4.28 -7.42,4.28 -8.25,0 -18.66,-7.53 -31.24,-22.63l-4.54 -5.62c-9.59,-12.17 -18.87,-24.9 -27.89,-38.2 -9.02,-13.3 -15.16,-22.27 -18.51,-27.02 -30.98,-43.2 -47.84,-64.8 -50.57,-64.8 -2.11,0 -3.19,17.68 -3.19,52.99 0,35.37 1.49,60.32 4.38,74.91 1.03,5.26 3.19,10.36 6.6,15.36 3.35,4.95 5.05,8.3 5.05,10 0,4.33 -10.21,6.5 -30.67,6.5l-6.96 0c-14.28,0 -21.44,-1.81 -21.44,-5.41 0,-3.61 3.09,-7.17 9.33,-10.67 6.18,-3.45 10.05,-8.19 11.7,-14.17 1.6,-5.98 2.42,-27.12 2.42,-63.36l0.41 -22.48 -0.15 -22.07c0,-21.44 -1.29,-35.52 -3.92,-42.17 -1.19,-3.09 -4.69,-6.86 -10.41,-11.24 -5.72,-4.38 -8.61,-6.96 -8.61,-7.78 0,-5.31 5.46,-7.99 16.39,-7.99 10.93,0 19.54,1.29 25.88,3.91 6.34,2.63 11.96,6.24 16.86,10.88 4.9,4.64 15.47,17.74 31.71,39.34 16.29,21.6 27.53,36.81 33.77,45.57l12.84 17.48c15.41,21.08 23.61,31.6 24.64,31.6 3.2,0 4.8,-17.58 4.8,-52.74 0,-35.11 -0.67,-56.29 -2.01,-63.56 -1.39,-7.27 -4.23,-13.25 -8.61,-18.04 -4.38,-4.8 -6.6,-7.37 -6.6,-7.79 0,-4.95 5.41,-7.42 16.19,-7.42l14.33 0c12.79,0 21.24,0.98 25.36,2.89 2.42,1.08 3.66,3.25 3.66,6.5 0,0.31 -3.81,4.23 -11.5,11.81 -4.12,4.02 -6.86,9.12 -8.14,15.36 -1.34,6.24 -1.96,27.99 -1.96,65.26l-0.31 29.44 0 40.78z"/>
  <path id="_1_0" class="fil6" d="M1653.61 5476.96l0 5.62c0,17.12 3.3,31.3 9.95,42.58 3.14,5.31 7.11,9.54 11.91,12.68 4.85,3.09 9.74,4.69 14.69,4.69l2.99 0c9.17,0 17.11,-4.48 23.82,-13.4 6.65,-8.87 10,-21.55 10,-37.94l0 -10.72c0,-16.24 -3.35,-30 -10,-41.34 -6.7,-11.29 -15.21,-16.96 -25.47,-16.96l-4.69 0c-9.28,0 -17.12,4.95 -23.56,14.95 -6.44,9.95 -9.64,23.25 -9.64,39.85zm109.75 0.62l0 7.53c0,7.99 -1.6,16.7 -4.79,26.14 -6.75,19.75 -20.21,33.56 -40.37,41.4 -8.71,3.4 -17.16,5.15 -25.36,5.15l-4.95 0c-19.23,0 -35.31,-6.44 -48.2,-19.33 -5.83,-5.88 -10.57,-13.56 -14.18,-23.15 -3.66,-9.54 -5.46,-19.69 -5.46,-30.47l0 -2.58c0,-9.8 1.7,-19.64 5.16,-29.59 6.65,-19.43 19.69,-32.94 39.13,-40.52 8.76,-3.4 17.16,-5.1 25.21,-5.1l7.53 0c8.97,0 17.79,2.01 26.45,6.03 16.39,7.63 27.84,19.85 34.28,36.55 3.71,9.85 5.57,19.18 5.57,27.94z"/>
  <path id="_2_1" class="fil6" d="M1854.62 5534.8l22.94 -3.45c2.63,0 3.92,2.01 3.92,6.13 0,4.07 -3.87,8.25 -11.6,12.58 -7.79,4.33 -15.93,6.5 -24.49,6.5l-3.04 0c-6.75,0 -12.84,-1.75 -18.25,-5.26 -5.46,-3.56 -9.43,-7.89 -11.96,-12.99 -4.33,-8.97 -6.5,-25.98 -6.5,-50.99 0,-25 -0.88,-40.68 -2.63,-46.91 -1.75,-6.24 -4.02,-10.52 -6.86,-12.84 -5.26,-4.23 -7.89,-6.55 -7.89,-6.96 0,-2.58 1.39,-4.79 4.12,-6.6 6.91,-4.64 10.72,-7.32 11.39,-7.94 0.62,-0.67 4.48,-8.92 11.55,-24.69 3.51,-7.89 7.53,-11.81 12.01,-11.81 4.48,0 7.47,1.6 8.97,4.85 0.41,0.83 1.29,5.16 2.63,13.15 1.39,7.94 3.3,13.04 5.83,15.31 2.53,2.27 8.09,4.43 16.76,6.5 8.66,2.06 12.99,5 12.99,8.87 0,3.81 -4.74,6.65 -14.33,8.61 -9.59,1.91 -15.36,4.33 -17.37,7.37 -3.51,5.15 -5.26,19.64 -5.26,43.51 0,23.87 1.09,38.92 3.3,45.16 2.84,7.94 7.42,11.91 13.77,11.91z"/>
  <path id="_3_2" class="fil6" d="M2024.69 5405.66c0,-15.36 -1.44,-26.6 -4.38,-33.66 -1.6,-3.81 -5.21,-7.68 -10.78,-11.55 -5.62,-3.87 -8.4,-7.11 -8.4,-9.74 0,-3.14 8.35,-4.69 25.05,-4.69 1.65,0 4.48,-0.1 8.56,-0.36 4.07,-0.26 7.27,-0.41 9.59,-0.52l7.37 -0.46c4.95,-0.31 8.66,-0.46 11.18,-0.46l3.82 0c6.6,0 9.95,2.06 9.95,6.19 0,1.34 -1.85,3.76 -5.62,7.32 -3.71,3.61 -6.29,7.37 -7.73,11.34 -1.49,3.97 -2.21,13.87 -2.21,29.69l-0.31 7.68 -0.15 11.5 0 11.76c-0.21,5.26 -0.31,9.49 -0.31,12.68l0 10.72 -0.1 7.89 0 25.05c0,14.08 -0.88,27.12 -2.58,39.13 -3.92,27.27 -16.55,46.6 -37.79,58 -8.97,4.85 -17.84,7.22 -26.7,7.22 -16.24,0 -24.33,-4.02 -24.33,-12.06 0,-4.74 1.65,-8.66 5,-11.76 3.3,-3.15 8.51,-4.69 15.57,-4.69l8.87 0.57c4.12,0 7.84,-1.49 11.03,-4.59 3.25,-3.09 6.55,-9.74 10,-20.1 3.4,-10.31 5.1,-27.68 5.1,-52.17l0.62 -22.63 0 -45.94 -0.15 -3.76c-0.1,-2.53 -0.16,-5.06 -0.16,-7.58z"/>
  <path id="_4_3" class="fil6" d="M2257.6 5538.21c4.43,3.51 6.65,5.93 6.65,7.42 0,1.44 -0.78,2.83 -2.27,4.12 -4.33,3.92 -13.61,5.93 -27.79,5.93 -4.64,0 -8.25,-0.83 -10.82,-2.37 -2.53,-1.55 -4.8,-4.38 -6.75,-8.51 -1.96,-4.12 -3.61,-6.24 -4.95,-6.24 -1.29,0.11 -4.23,1.81 -8.77,5 -12.68,9.18 -24.8,13.77 -36.39,13.77 -0.1,0 -0.21,0 -0.41,0l-4.54 0c-16.6,0 -28.66,-7.06 -36.09,-21.13 -3.87,-7.37 -5.78,-25.37 -5.83,-54.03 -0.05,-28.61 -0.57,-44.39 -1.44,-47.28 -0.92,-2.84 -4.12,-5.57 -9.59,-8.14 -5.52,-2.58 -8.25,-4.54 -8.25,-5.98 0,-3.71 1.75,-6.14 5.31,-7.22 7.84,-2.53 17.84,-3.82 30.06,-3.82 7.06,0 11.5,2.89 13.4,8.61 2.53,7.37 3.82,24.9 3.82,52.63 0,27.79 1.18,44.59 3.61,50.52 4.12,10.21 11.65,15.26 22.53,15.26 5.62,0 11.24,-1.44 16.81,-4.38 5.62,-2.89 9.95,-6.81 13.1,-11.76 3.09,-4.95 4.64,-18.51 4.64,-40.73 0,-22.17 -0.72,-36.14 -2.16,-41.91 -1.44,-5.72 -3.71,-10.21 -6.7,-13.51 -3.04,-3.25 -4.54,-5.88 -4.54,-7.79 0,-4.43 11.81,-6.65 35.47,-6.65 4.95,0 8.15,1.08 9.69,3.25 1.49,2.16 2.27,6.13 2.27,11.86l-0.46 8.92 -0.78 40.16c0,26.19 0.78,42.53 2.27,49.02 1.49,6.5 4.48,11.5 8.92,14.95z"/>
  <path id="_5_4" class="fil6" d="M2387.2 5486.96c7.94,7.53 11.96,17.07 11.96,28.61 0,11.5 -4.74,21.39 -14.23,29.59 -9.43,8.19 -22.53,12.32 -39.29,12.32l-4.07 0c-19.02,0 -33.51,-2.37 -43.46,-7.12 -5.57,-2.63 -8.35,-8.45 -8.35,-17.53l0 -3.76c0,-11.6 2.16,-17.37 6.5,-17.37 3.66,0 7.94,3.4 12.84,10.21 4.95,6.8 9.07,11.34 12.42,13.66 6.44,4.43 14.02,6.65 22.74,6.65 8.66,0 15.1,-1.86 19.23,-5.52 4.13,-3.66 6.19,-8.56 6.19,-14.59 0,-6.03 -3.51,-11.6 -10.57,-16.76 -3.71,-2.73 -12.42,-7.01 -26.03,-12.84 -13.66,-5.82 -23.87,-11.96 -30.62,-18.35 -6.7,-6.39 -10.1,-15.41 -10.1,-27.11 0,-11.65 4.9,-21.19 14.64,-28.46 9.8,-7.32 21.81,-10.98 36.14,-10.98l4.07 0c18.71,0 31.86,2.22 39.39,6.65 3.97,2.32 5.93,8.76 5.93,19.33 0,10.57 -2.53,15.88 -7.58,15.88 -2.84,0 -6.65,-3.15 -11.55,-9.43 -4.9,-6.29 -9.33,-10.78 -13.35,-13.46 -4.02,-2.68 -9.59,-4.02 -16.7,-4.02 -7.12,0 -12.73,1.65 -16.86,4.85 -4.13,3.25 -6.19,7.89 -6.19,13.97 0,6.09 3.76,11.55 11.34,16.39 1.91,1.34 10.26,5.21 25.06,11.65 14.79,6.44 25,12.27 30.52,17.53z"/>
  <path id="_6_5" class="fil6" d="M2489.8 5534.8l22.94 -3.45c2.63,0 3.92,2.01 3.92,6.13 0,4.07 -3.87,8.25 -11.6,12.58 -7.79,4.33 -15.93,6.5 -24.49,6.5l-3.04 0c-6.75,0 -12.84,-1.75 -18.25,-5.26 -5.46,-3.56 -9.43,-7.89 -11.96,-12.99 -4.33,-8.97 -6.5,-25.98 -6.5,-50.99 0,-25 -0.88,-40.68 -2.63,-46.91 -1.75,-6.24 -4.02,-10.52 -6.86,-12.84 -5.26,-4.23 -7.89,-6.55 -7.89,-6.96 0,-2.58 1.39,-4.79 4.12,-6.6 6.91,-4.64 10.72,-7.32 11.39,-7.94 0.62,-0.67 4.48,-8.92 11.55,-24.69 3.51,-7.89 7.53,-11.81 12.01,-11.81 4.48,0 7.47,1.6 8.97,4.85 0.41,0.83 1.29,5.16 2.63,13.15 1.39,7.94 3.3,13.04 5.83,15.31 2.53,2.27 8.09,4.43 16.76,6.5 8.66,2.06 12.99,5 12.99,8.87 0,3.81 -4.74,6.65 -14.33,8.61 -9.59,1.91 -15.36,4.33 -17.37,7.37 -3.51,5.15 -5.26,19.64 -5.26,43.51 0,23.87 1.09,38.92 3.3,45.16 2.84,7.94 7.42,11.91 13.77,11.91z"/>
  <path id="_7_6" class="fil6" d="M2702.91 5360.35l-7.27 0c-11.04,0 -17.22,2.21 -18.41,6.65 -0.62,2.11 -0.92,17.07 -0.92,44.85l0 56.5 -0.16 7.42c0,2.53 0,5 0,7.53l-0.1 7.42c0,2.53 0,5 0,7.53l-0.15 9.85 0 7.37c0,10.46 1.44,16.96 4.38,19.43 2.88,2.47 10,3.66 21.29,3.66l2.42 -0.1c21.04,0 37.84,-6.96 50.42,-20.88 6.34,-6.96 11.34,-16.03 14.95,-27.27 3.61,-11.19 5.46,-22.63 5.46,-34.18l0 -10.88c0,-10.78 -1.65,-21.81 -4.84,-33.1 -6.65,-22.74 -19.8,-38.3 -39.44,-46.65 -7.94,-3.4 -17.17,-5.15 -27.63,-5.15zm-3.3 -16.29l7.83 0c50.42,0.1 83.62,19.8 99.55,59.08 5.21,12.89 7.84,26.5 7.84,40.93l0 4.23c0,16.7 -2.79,31.71 -8.3,45.01 -10.88,25.98 -30,44.23 -57.38,54.8 -12.63,4.84 -26.5,7.27 -41.71,7.27l-11.34 0 -3.76 -0.15 -7.68 -0.15c-2.53,-0.11 -5.1,-0.16 -7.73,-0.16l-22.22 -0.46c-22.53,0 -33.82,-1.65 -33.82,-5 0,-3.3 2.16,-6.08 6.5,-8.3 7.47,-3.82 11.76,-6.86 12.84,-9.08 2.42,-4.59 3.66,-15.15 3.66,-31.71l0 -71.55 -0.31 -19.18 -0.31 -15.26c0,-13.51 -1.18,-22.06 -3.56,-25.67 -2.37,-3.66 -6.14,-6.55 -11.34,-8.71 -5.16,-2.16 -7.79,-4.85 -7.79,-8.09 0,-3.82 7.73,-5.72 23.15,-5.72l14.49 -0.31 3.61 -0.31 3.66 -0.15c21.7,-0.88 33.1,-1.34 34.13,-1.34z"/>
  <path id="_8" class="fil6" d="M2900.46 5360.81c0,4.43 -1.91,8.56 -5.67,12.32 -3.76,3.76 -7.53,5.67 -11.24,5.67 -0.83,0.2 -1.49,0.31 -1.96,0.31l-3.35 0.31c-5,0 -9.54,-1.7 -13.51,-5 -3.97,-3.35 -5.98,-7.63 -5.98,-12.84l0 -2.73c0,-5.21 2.11,-9.64 6.29,-13.2 4.17,-3.56 8.97,-5.36 14.43,-5.36l0.72 0 5.16 0.62c3.09,0 6.34,1.65 9.74,5.05 3.35,3.35 5.06,6.75 5.06,10.15l0.31 1.39 0 3.3zm-48.05 67.38c-5.2,-2.53 -7.83,-4.9 -7.83,-7.12 0,-2.21 1.03,-3.97 3.14,-5.26 7.37,-4.43 19.02,-6.65 34.9,-6.65l4.38 0c5.46,0 8.51,2.53 9.23,7.53 0.41,2.73 0.62,21.04 0.62,54.9 0,33.87 0.67,53.31 2.11,58.31 1.39,5 4.74,8.82 10.11,11.5 5.31,2.63 7.99,5.36 7.99,8.04 0,3.87 -12.48,5.78 -37.43,5.78l-4.54 0.15 -18.46 0c-7.32,0 -11.03,-1.8 -11.03,-5.46 0,-2.99 2.27,-5.93 6.75,-8.76 4.48,-2.79 7.58,-5.93 9.28,-9.33 1.91,-3.76 2.89,-12.48 2.89,-26.14l0.15 -4.85 0 -4.69 0.1 -7.06 0 -4.69 0.16 -4.69c0,-23.87 -0.78,-37.79 -2.32,-41.76 -1.55,-3.97 -4.95,-7.22 -10.21,-9.74z"/>
  <path id="_9" class="fil6" d="M3036.98 5456.6l0 -4.69c0,-7.48 -2.63,-14.18 -7.99,-20.16 -5.31,-5.98 -11.86,-9.02 -19.64,-9.02l-2.83 0c-1.44,0.2 -2.37,0.31 -2.89,0.31 -7.07,0 -13.71,4.02 -20.01,12.12 -6.29,8.04 -9.43,16.65 -9.43,25.83l0 1.96c0,3.19 1.91,4.79 5.72,4.79 1.49,0.31 2.32,0.46 2.42,0.46l3.45 0.16 0.93 0 1.03 -0.16 29.18 -1.65 5.41 -0.62c9.8,0 14.64,-3.09 14.64,-9.33zm-62.79 40.01c0,11.5 4.33,21.08 12.99,28.87 8.66,7.73 19.64,11.6 32.89,11.6 5.36,0 10.21,-0.77 14.59,-2.32 4.38,-1.55 9.18,-3.45 14.33,-5.67 5.21,-2.21 8.45,-3.35 9.74,-3.35 4.02,0 6.08,2.17 6.08,6.5 0,5.87 -7.47,12.11 -22.37,18.76 -9.69,4.33 -20.05,6.5 -31.14,6.5l-3.3 0c-18.92,0 -34.64,-5.78 -47.12,-17.22 -6.75,-6.24 -12.01,-14.23 -15.72,-23.97 -3.71,-9.69 -5.57,-20.15 -5.57,-31.34l0.15 -3.45 0 -3.45c0,-9.69 2.21,-19.17 6.65,-28.56 4.54,-9.38 9.9,-17.07 16.14,-23.1 13.2,-12.68 28.87,-19.07 46.97,-19.18 27.37,0 45.62,10.67 54.7,32.02 2.84,6.75 4.23,12.94 4.23,18.56l0 3.05c0,6.9 -2.88,11.6 -8.61,13.97 -5.78,2.37 -19.28,4.28 -40.62,5.77 -21.34,1.55 -32.94,2.53 -34.75,3.04 -6.86,1.7 -10.26,6.03 -10.26,12.99z"/>
  <path id="_10" class="fil6" d="M3161.01 5534.8l22.94 -3.45c2.63,0 3.92,2.01 3.92,6.13 0,4.07 -3.87,8.25 -11.6,12.58 -7.79,4.33 -15.93,6.5 -24.49,6.5l-3.04 0c-6.75,0 -12.84,-1.75 -18.25,-5.26 -5.46,-3.56 -9.43,-7.89 -11.96,-12.99 -4.33,-8.97 -6.5,-25.98 -6.5,-50.99 0,-25 -0.88,-40.68 -2.63,-46.91 -1.75,-6.24 -4.02,-10.52 -6.86,-12.84 -5.26,-4.23 -7.89,-6.55 -7.89,-6.96 0,-2.58 1.39,-4.79 4.12,-6.6 6.91,-4.64 10.72,-7.32 11.39,-7.94 0.62,-0.67 4.48,-8.92 11.55,-24.69 3.51,-7.89 7.53,-11.81 12.01,-11.81 4.48,0 7.47,1.6 8.97,4.85 0.41,0.83 1.29,5.16 2.63,13.15 1.39,7.94 3.3,13.04 5.83,15.31 2.53,2.27 8.09,4.43 16.76,6.5 8.66,2.06 12.99,5 12.99,8.87 0,3.81 -4.74,6.65 -14.33,8.61 -9.59,1.91 -15.36,4.33 -17.37,7.37 -3.51,5.15 -5.26,19.64 -5.26,43.51 0,23.87 1.09,38.92 3.3,45.16 2.84,7.94 7.42,11.91 13.77,11.91z"/>
  <path id="_11" class="fil6" d="M3265.97 5360.81c0,4.43 -1.91,8.56 -5.67,12.32 -3.76,3.76 -7.53,5.67 -11.24,5.67 -0.83,0.2 -1.49,0.31 -1.96,0.31l-3.35 0.31c-5,0 -9.54,-1.7 -13.51,-5 -3.97,-3.35 -5.98,-7.63 -5.98,-12.84l0 -2.73c0,-5.21 2.11,-9.64 6.29,-13.2 4.17,-3.56 8.97,-5.36 14.43,-5.36l0.72 0 5.16 0.62c3.09,0 6.34,1.65 9.74,5.05 3.35,3.35 5.06,6.75 5.06,10.15l0.31 1.39 0 3.3zm-48.05 67.38c-5.2,-2.53 -7.83,-4.9 -7.83,-7.12 0,-2.21 1.03,-3.97 3.14,-5.26 7.37,-4.43 19.02,-6.65 34.9,-6.65l4.38 0c5.46,0 8.51,2.53 9.23,7.53 0.41,2.73 0.62,21.04 0.62,54.9 0,33.87 0.67,53.31 2.11,58.31 1.39,5 4.74,8.82 10.11,11.5 5.31,2.63 7.99,5.36 7.99,8.04 0,3.87 -12.48,5.78 -37.43,5.78l-4.54 0.15 -18.46 0c-7.32,0 -11.03,-1.8 -11.03,-5.46 0,-2.99 2.27,-5.93 6.75,-8.76 4.48,-2.79 7.58,-5.93 9.28,-9.33 1.91,-3.76 2.89,-12.48 2.89,-26.14l0.15 -4.85 0 -4.69 0.1 -7.06 0 -4.69 0.16 -4.69c0,-23.87 -0.78,-37.79 -2.32,-41.76 -1.55,-3.97 -4.95,-7.22 -10.21,-9.74z"/>
  <path id="_12" class="fil6" d="M3328.35 5553.57c-14.17,0 -21.29,-2.07 -21.29,-6.09 0,-3.3 1.85,-6.03 5.57,-8.14 6.75,-3.82 10.67,-7.27 11.81,-10.36 1.08,-3.04 1.65,-17.58 1.65,-43.61 0,-26.04 -0.78,-41.29 -2.32,-45.78 -1.6,-4.48 -4.43,-8.2 -8.56,-11.09 -4.12,-2.94 -6.19,-5.31 -6.19,-7.11 0,-1.81 1.34,-3.51 4.08,-5.15 6.34,-3.71 16.39,-5.57 30.21,-5.57 4.12,0 7.37,1.39 9.69,4.23 0.78,1.03 1.91,3.19 3.35,6.6 1.49,3.35 2.47,5.05 2.99,5.05 1.91,-0.1 4.85,-1.49 8.87,-4.07 13.92,-9.38 26.5,-14.07 37.79,-14.07l0.31 0 4.79 0c8.2,0 15.52,2.01 22.07,6.03 6.55,4.02 11.6,10.1 15.21,18.15 3.56,8.04 5.36,25.57 5.36,52.63 0,27.01 0.57,42.12 1.7,45.31 1.18,3.14 4.43,6.08 9.85,8.82 5.36,2.73 8.04,5.41 8.04,7.99 0,4.54 -14.28,6.81 -42.89,6.81l-4.48 0c-9.07,0 -13.61,-2.17 -13.61,-6.5 0,-0.88 1.08,-3.1 3.3,-6.55 2.21,-3.51 3.76,-7.32 4.54,-11.55 0.82,-4.23 1.24,-18.14 1.24,-41.76 0,-23.61 -1.49,-38.82 -4.38,-45.57 -4.02,-9.23 -10.72,-13.87 -20.1,-13.87 -6.86,0 -13.45,1.6 -19.85,4.74 -6.39,3.19 -11.04,7.68 -13.92,13.45 -2.84,5.77 -4.28,19.64 -4.28,41.55 0,21.86 0.62,35.1 1.81,39.7 1.18,4.59 2.68,8.3 4.38,11.08l5.57 9.07c0,3.92 -7.89,5.88 -23.71,5.88l-9.18 -0.26 -9.38 0z"/>
  <path id="_13" class="fil6" d="M3558.33 5416.85l-3.92 0c-5.31,0 -10.52,3.09 -15.52,9.23 -5.06,6.14 -7.58,13.3 -7.58,21.45l-0.31 2.42 -0.16 3.76 0 3.92 0.16 1.24c0,10.46 2.27,18.92 6.8,25.36 4.54,6.44 11.29,9.64 20.26,9.64l1.03 0c6.96,0 12.89,-2.68 17.84,-8.14 4.95,-5.41 7.37,-12.63 7.37,-21.6l0 -5.88c-0.26,-2.42 -0.41,-4.38 -0.41,-5.88 0,-9.59 -2.68,-17.89 -7.94,-24.95 -5.31,-7.01 -11.18,-10.57 -17.63,-10.57zm-13.4 134.3c-7.06,0 -13.05,2.47 -17.99,7.37 -4.95,4.95 -7.37,11.13 -7.37,18.61l0 1.19c0,8.56 3.35,15.31 10.1,20.26 6.75,4.9 15.93,7.37 27.63,7.37l3.92 0c14.12,0 25.41,-3.19 33.97,-9.64 8.56,-6.44 12.84,-14.02 12.84,-22.68l-0.15 -1.18c0,-5.78 -2.32,-10.36 -7.06,-13.82 -4.74,-3.51 -10.31,-5.21 -16.76,-5.21 -4.08,-0.52 -6.96,-0.77 -8.77,-0.77l-5.15 -0.46 -2.58 0 -9.07 -0.62 -6.18 -0.41 -7.37 0zm92.9 -135.95c0,5.72 -3.66,9.38 -10.88,10.93 -7.27,1.6 -10.88,4.59 -10.88,9.02l0.41 3.14 0.62 3.61 0.78 3.97c0.52,3.3 0.72,7.99 0.72,14.03 0,6.03 -1.7,12.27 -5.1,18.71 -9.59,17.84 -27.99,27.63 -55.26,29.34 -8.77,0.57 -14.38,1.34 -16.81,2.27 -5.21,2.01 -7.84,5.36 -7.84,10.11 0,4.74 3.87,8.04 11.65,9.95 1.09,0.31 11.09,1.29 30.06,2.88 18.92,1.49 31.55,3.87 37.89,7.12 13.41,6.65 20.11,16.24 20.11,28.82 0,16.55 -7.37,29.95 -22.17,40.36 -14.74,10.36 -34.02,15.52 -57.89,15.52 -16.81,0 -30.83,-3.2 -42.02,-9.64 -5.11,-2.94 -9.28,-6.75 -12.42,-11.39 -3.2,-4.69 -4.8,-9.54 -4.8,-14.59 0,-8.97 2.68,-16.39 8.04,-22.37 8.56,-9.43 12.84,-14.49 12.84,-15.11 0,-0.57 -1.86,-3.25 -5.62,-7.99 -3.71,-4.74 -5.57,-9.64 -5.57,-14.8 0,-5.15 2.42,-10.72 7.32,-16.7 4.9,-5.98 7.32,-9.33 7.32,-10.06 0,-0.67 -2.99,-5.83 -9.07,-15.47 -6.03,-9.59 -9.02,-18.77 -9.02,-27.42 0,-8.66 1.85,-16.34 5.57,-23.1 10.57,-19.23 30.26,-28.82 59.03,-28.82l4.38 0 21.03 1.34 7.68 0.31c2.63,0.11 5.31,0.16 7.99,0.16l16.03 -1.09c10.57,0 15.88,2.32 15.88,6.96z"/>
  <path id="_14" class="fil6" d="M3685.51 5558.36c-5.2,0 -10,-1.85 -14.33,-5.57 -4.33,-3.71 -6.5,-8.61 -6.5,-14.64l0 -1.39c0,-5.83 2.22,-10.67 6.7,-14.49 4.48,-3.81 9.07,-5.72 13.66,-5.72l2.73 0c1.49,0.31 2.63,0.46 3.35,0.46 3.51,0 7.16,1.91 10.98,5.72 3.87,3.82 5.78,8.25 5.78,13.3l0 2.12c0,4.64 -1.86,9.07 -5.52,13.35 -3.66,4.28 -7.89,6.39 -12.63,6.44l-3.45 0.41 -0.78 0z"/>
  <path id="_15" class="fil6" d="M3916.63 5555.06l-4.54 0 -4.54 -0.16 -22.48 0c-35.73,0 -55.01,-0.26 -57.84,-0.77 -5.26,-0.88 -7.83,-3.09 -7.83,-6.65 0,-1.49 2.73,-4.17 8.19,-7.99 5.52,-3.81 9.07,-9.33 10.72,-16.55 1.65,-7.17 2.47,-33.66 2.47,-79.34 0,-45.73 -0.57,-70.58 -1.7,-74.55 -1.18,-3.97 -4.12,-6.96 -8.87,-8.97 -7.42,-3.25 -11.13,-6.65 -11.13,-10.31 0,-3.61 5.62,-5.41 16.91,-5.41l9.07 0 4.38 0.15 13.56 0.15c24.38,0 36.55,1.81 36.55,5.41 0,1.24 -3.56,5.31 -10.72,12.27 -4.02,3.92 -6.91,10.62 -8.66,20.16 -1.75,9.49 -2.68,34.85 -2.68,76.04 0,41.19 0.67,63.67 1.91,67.48 1.24,3.87 4.23,6.5 8.81,8.04 2.84,0.88 8.4,1.34 16.65,1.34 17.79,0 31.14,-2.32 40.01,-6.96 5.05,-2.63 10.46,-7.99 16.29,-16.14 5.88,-8.14 10.41,-12.27 13.71,-12.27 3.25,0 4.9,2.11 4.9,6.34l0 3.97c0,22.12 -2.73,35.67 -8.14,40.62 -3.04,2.68 -21.34,4.08 -55.01,4.08z"/>
  <path id="_16" class="fil6" d="M4055.72 5360.81c0,4.43 -1.91,8.56 -5.67,12.32 -3.76,3.76 -7.53,5.67 -11.24,5.67 -0.83,0.2 -1.49,0.31 -1.96,0.31l-3.35 0.31c-5,0 -9.54,-1.7 -13.51,-5 -3.97,-3.35 -5.98,-7.63 -5.98,-12.84l0 -2.73c0,-5.21 2.11,-9.64 6.29,-13.2 4.17,-3.56 8.97,-5.36 14.43,-5.36l0.72 0 5.16 0.62c3.09,0 6.34,1.65 9.74,5.05 3.35,3.35 5.06,6.75 5.06,10.15l0.31 1.39 0 3.3zm-48.05 67.38c-5.2,-2.53 -7.83,-4.9 -7.83,-7.12 0,-2.21 1.03,-3.97 3.14,-5.26 7.37,-4.43 19.02,-6.65 34.9,-6.65l4.38 0c5.46,0 8.51,2.53 9.23,7.53 0.41,2.73 0.62,21.04 0.62,54.9 0,33.87 0.67,53.31 2.11,58.31 1.39,5 4.74,8.82 10.11,11.5 5.31,2.63 7.99,5.36 7.99,8.04 0,3.87 -12.48,5.78 -37.43,5.78l-4.54 0.15 -18.46 0c-7.32,0 -11.03,-1.8 -11.03,-5.46 0,-2.99 2.27,-5.93 6.75,-8.76 4.48,-2.79 7.58,-5.93 9.28,-9.33 1.91,-3.76 2.89,-12.48 2.89,-26.14l0.15 -4.85 0 -4.69 0.1 -7.06 0 -4.69 0.16 -4.69c0,-23.87 -0.78,-37.79 -2.32,-41.76 -1.55,-3.97 -4.95,-7.22 -10.21,-9.74z"/>
  <path id="_17" class="fil6" d="M4168.21 5556.71l-3.45 0c-4.74,0 -9.43,-4.38 -14.02,-13.15 -2.32,-4.43 -9.43,-21.81 -21.35,-52.12 -11.85,-30.26 -19.12,-47.79 -21.7,-52.48 -2.63,-4.64 -6.7,-8.81 -12.27,-12.53 -5.52,-3.66 -8.3,-6.44 -8.3,-8.35 0,-3.14 2.22,-5.15 6.65,-6.08 4.43,-0.88 14.54,-1.34 30.36,-1.34 15.83,0 23.71,2.27 23.71,6.81 0,0.31 -0.57,1.91 -1.65,4.9 -1.13,2.99 -1.7,6.24 -1.7,9.74 0,13.81 7.89,38.87 23.56,75.21 2.94,6.65 5,9.95 6.24,9.95 1.18,0 3.14,-2.99 5.88,-9.02 16.19,-35.88 24.28,-60.73 24.28,-74.65 0,-3.4 -1.29,-7.01 -3.92,-10.88 -2.58,-3.82 -3.92,-5.78 -3.92,-5.88 0,-4.33 9.38,-6.5 28.1,-6.5l3.61 0c12.32,0 18.46,2.11 18.46,6.34 0,3.66 -2.68,7.17 -7.99,10.67 -5.36,3.45 -9.43,7.79 -12.27,12.89 -1.29,2.32 -7.99,18.46 -20.05,48.41 -12.11,29.95 -20.26,48.82 -24.49,56.5 -4.23,7.68 -8.82,11.55 -13.77,11.55z"/>
  <path id="_18" class="fil6" d="M4319.57 5360.81c0,4.43 -1.91,8.56 -5.67,12.32 -3.76,3.76 -7.53,5.67 -11.24,5.67 -0.83,0.2 -1.49,0.31 -1.96,0.31l-3.35 0.31c-5,0 -9.54,-1.7 -13.51,-5 -3.97,-3.35 -5.98,-7.63 -5.98,-12.84l0 -2.73c0,-5.21 2.11,-9.64 6.29,-13.2 4.17,-3.56 8.97,-5.36 14.43,-5.36l0.72 0 5.16 0.62c3.09,0 6.34,1.65 9.74,5.05 3.35,3.35 5.06,6.75 5.06,10.15l0.31 1.39 0 3.3zm-48.05 67.38c-5.2,-2.53 -7.83,-4.9 -7.83,-7.12 0,-2.21 1.03,-3.97 3.14,-5.26 7.37,-4.43 19.02,-6.65 34.9,-6.65l4.38 0c5.46,0 8.51,2.53 9.23,7.53 0.41,2.73 0.62,21.04 0.62,54.9 0,33.87 0.67,53.31 2.11,58.31 1.39,5 4.74,8.82 10.11,11.5 5.31,2.63 7.99,5.36 7.99,8.04 0,3.87 -12.48,5.78 -37.43,5.78l-4.54 0.15 -18.46 0c-7.32,0 -11.03,-1.8 -11.03,-5.46 0,-2.99 2.27,-5.93 6.75,-8.76 4.48,-2.79 7.58,-5.93 9.28,-9.33 1.91,-3.76 2.89,-12.48 2.89,-26.14l0.15 -4.85 0 -4.69 0.1 -7.06 0 -4.69 0.16 -4.69c0,-23.87 -0.78,-37.79 -2.32,-41.76 -1.55,-3.97 -4.95,-7.22 -10.21,-9.74z"/>
  <path id="_19" class="fil6" d="M4381.95 5553.57c-14.17,0 -21.29,-2.07 -21.29,-6.09 0,-3.3 1.85,-6.03 5.57,-8.14 6.75,-3.82 10.67,-7.27 11.81,-10.36 1.08,-3.04 1.65,-17.58 1.65,-43.61 0,-26.04 -0.78,-41.29 -2.32,-45.78 -1.6,-4.48 -4.43,-8.2 -8.56,-11.09 -4.12,-2.94 -6.19,-5.31 -6.19,-7.11 0,-1.81 1.34,-3.51 4.08,-5.15 6.34,-3.71 16.39,-5.57 30.21,-5.57 4.12,0 7.37,1.39 9.69,4.23 0.78,1.03 1.91,3.19 3.35,6.6 1.49,3.35 2.47,5.05 2.99,5.05 1.91,-0.1 4.85,-1.49 8.87,-4.07 13.92,-9.38 26.5,-14.07 37.79,-14.07l0.31 0 4.79 0c8.2,0 15.52,2.01 22.07,6.03 6.55,4.02 11.6,10.1 15.21,18.15 3.56,8.04 5.36,25.57 5.36,52.63 0,27.01 0.57,42.12 1.7,45.31 1.18,3.14 4.43,6.08 9.85,8.82 5.36,2.73 8.04,5.41 8.04,7.99 0,4.54 -14.28,6.81 -42.89,6.81l-4.48 0c-9.07,0 -13.61,-2.17 -13.61,-6.5 0,-0.88 1.08,-3.1 3.3,-6.55 2.21,-3.51 3.76,-7.32 4.54,-11.55 0.82,-4.23 1.24,-18.14 1.24,-41.76 0,-23.61 -1.49,-38.82 -4.38,-45.57 -4.02,-9.23 -10.72,-13.87 -20.1,-13.87 -6.86,0 -13.45,1.6 -19.85,4.74 -6.39,3.19 -11.04,7.68 -13.92,13.45 -2.84,5.77 -4.28,19.64 -4.28,41.55 0,21.86 0.62,35.1 1.81,39.7 1.18,4.59 2.68,8.3 4.38,11.08l5.57 9.07c0,3.92 -7.89,5.88 -23.71,5.88l-9.18 -0.26 -9.38 0z"/>
  <path id="_20" class="fil6" d="M4611.93 5416.85l-3.92 0c-5.31,0 -10.52,3.09 -15.52,9.23 -5.06,6.14 -7.58,13.3 -7.58,21.45l-0.31 2.42 -0.16 3.76 0 3.92 0.16 1.24c0,10.46 2.27,18.92 6.8,25.36 4.54,6.44 11.29,9.64 20.26,9.64l1.03 0c6.96,0 12.89,-2.68 17.84,-8.14 4.95,-5.41 7.37,-12.63 7.37,-21.6l0 -5.88c-0.26,-2.42 -0.41,-4.38 -0.41,-5.88 0,-9.59 -2.68,-17.89 -7.94,-24.95 -5.31,-7.01 -11.18,-10.57 -17.63,-10.57zm-13.4 134.3c-7.06,0 -13.05,2.47 -17.99,7.37 -4.95,4.95 -7.37,11.13 -7.37,18.61l0 1.19c0,8.56 3.35,15.31 10.1,20.26 6.75,4.9 15.93,7.37 27.63,7.37l3.92 0c14.12,0 25.41,-3.19 33.97,-9.64 8.56,-6.44 12.84,-14.02 12.84,-22.68l-0.15 -1.18c0,-5.78 -2.32,-10.36 -7.06,-13.82 -4.74,-3.51 -10.31,-5.21 -16.76,-5.21 -4.08,-0.52 -6.96,-0.77 -8.77,-0.77l-5.15 -0.46 -2.58 0 -9.07 -0.62 -6.18 -0.41 -7.37 0zm92.9 -135.95c0,5.72 -3.66,9.38 -10.88,10.93 -7.27,1.6 -10.88,4.59 -10.88,9.02l0.41 3.14 0.62 3.61 0.78 3.97c0.52,3.3 0.72,7.99 0.72,14.03 0,6.03 -1.7,12.27 -5.1,18.71 -9.59,17.84 -27.99,27.63 -55.26,29.34 -8.77,0.57 -14.38,1.34 -16.81,2.27 -5.21,2.01 -7.84,5.36 -7.84,10.11 0,4.74 3.87,8.04 11.65,9.95 1.09,0.31 11.09,1.29 30.06,2.88 18.92,1.49 31.55,3.87 37.89,7.12 13.41,6.65 20.11,16.24 20.11,28.82 0,16.55 -7.37,29.95 -22.17,40.36 -14.74,10.36 -34.02,15.52 -57.89,15.52 -16.81,0 -30.83,-3.2 -42.02,-9.64 -5.11,-2.94 -9.28,-6.75 -12.42,-11.39 -3.2,-4.69 -4.8,-9.54 -4.8,-14.59 0,-8.97 2.68,-16.39 8.04,-22.37 8.56,-9.43 12.84,-14.49 12.84,-15.11 0,-0.57 -1.86,-3.25 -5.62,-7.99 -3.71,-4.74 -5.57,-9.64 -5.57,-14.8 0,-5.15 2.42,-10.72 7.32,-16.7 4.9,-5.98 7.32,-9.33 7.32,-10.06 0,-0.67 -2.99,-5.83 -9.07,-15.47 -6.03,-9.59 -9.02,-18.77 -9.02,-27.42 0,-8.66 1.85,-16.34 5.57,-23.1 10.57,-19.23 30.26,-28.82 59.03,-28.82l4.38 0 21.03 1.34 7.68 0.31c2.63,0.11 5.31,0.16 7.99,0.16l16.03 -1.09c10.57,0 15.88,2.32 15.88,6.96z"/>
  <path id="_21" class="fil6" d="M4848.81 5360.81c0,4.43 -1.91,8.56 -5.67,12.32 -3.76,3.76 -7.53,5.67 -11.24,5.67 -0.83,0.2 -1.49,0.31 -1.96,0.31l-3.35 0.31c-5,0 -9.54,-1.7 -13.51,-5 -3.97,-3.35 -5.98,-7.63 -5.98,-12.84l0 -2.73c0,-5.21 2.11,-9.64 6.29,-13.2 4.17,-3.56 8.97,-5.36 14.43,-5.36l0.72 0 5.16 0.62c3.09,0 6.34,1.65 9.74,5.05 3.35,3.35 5.06,6.75 5.06,10.15l0.31 1.39 0 3.3zm-48.05 67.38c-5.2,-2.53 -7.83,-4.9 -7.83,-7.12 0,-2.21 1.03,-3.97 3.14,-5.26 7.37,-4.43 19.02,-6.65 34.9,-6.65l4.38 0c5.46,0 8.51,2.53 9.23,7.53 0.41,2.73 0.62,21.04 0.62,54.9 0,33.87 0.67,53.31 2.11,58.31 1.39,5 4.74,8.82 10.11,11.5 5.31,2.63 7.99,5.36 7.99,8.04 0,3.87 -12.48,5.78 -37.43,5.78l-4.54 0.15 -18.46 0c-7.32,0 -11.03,-1.8 -11.03,-5.46 0,-2.99 2.27,-5.93 6.75,-8.76 4.48,-2.79 7.58,-5.93 9.28,-9.33 1.91,-3.76 2.89,-12.48 2.89,-26.14l0.15 -4.85 0 -4.69 0.1 -7.06 0 -4.69 0.16 -4.69c0,-23.87 -0.78,-37.79 -2.32,-41.76 -1.55,-3.97 -4.95,-7.22 -10.21,-9.74z"/>
  <path id="_22" class="fil6" d="M4911.19 5553.57c-14.17,0 -21.29,-2.07 -21.29,-6.09 0,-3.3 1.85,-6.03 5.57,-8.14 6.75,-3.82 10.67,-7.27 11.81,-10.36 1.08,-3.04 1.65,-17.58 1.65,-43.61 0,-26.04 -0.78,-41.29 -2.32,-45.78 -1.6,-4.48 -4.43,-8.2 -8.56,-11.09 -4.12,-2.94 -6.19,-5.31 -6.19,-7.11 0,-1.81 1.34,-3.51 4.08,-5.15 6.34,-3.71 16.39,-5.57 30.21,-5.57 4.12,0 7.37,1.39 9.69,4.23 0.78,1.03 1.91,3.19 3.35,6.6 1.49,3.35 2.47,5.05 2.99,5.05 1.91,-0.1 4.85,-1.49 8.87,-4.07 13.92,-9.38 26.5,-14.07 37.79,-14.07l0.31 0 4.79 0c8.2,0 15.52,2.01 22.07,6.03 6.55,4.02 11.6,10.1 15.21,18.15 3.56,8.04 5.36,25.57 5.36,52.63 0,27.01 0.57,42.12 1.7,45.31 1.18,3.14 4.43,6.08 9.85,8.82 5.36,2.73 8.04,5.41 8.04,7.99 0,4.54 -14.28,6.81 -42.89,6.81l-4.48 0c-9.07,0 -13.61,-2.17 -13.61,-6.5 0,-0.88 1.08,-3.1 3.3,-6.55 2.21,-3.51 3.76,-7.32 4.54,-11.55 0.82,-4.23 1.24,-18.14 1.24,-41.76 0,-23.61 -1.49,-38.82 -4.38,-45.57 -4.02,-9.23 -10.72,-13.87 -20.1,-13.87 -6.86,0 -13.45,1.6 -19.85,4.74 -6.39,3.19 -11.04,7.68 -13.92,13.45 -2.84,5.77 -4.28,19.64 -4.28,41.55 0,21.86 0.62,35.1 1.81,39.7 1.18,4.59 2.68,8.3 4.38,11.08l5.57 9.07c0,3.92 -7.89,5.88 -23.71,5.88l-9.18 -0.26 -9.38 0z"/>
  <path id="_23" class="fil6" d="M5224.58 5361.28c-4.54,0 -7.27,1.7 -8.3,5.15 -0.62,2.11 -0.93,11.6 -0.93,28.51l0 29.33c0,6.24 0.57,10.1 1.7,11.55 1.08,1.44 4.54,2.16 10.26,2.16l6.34 0 1.34 -0.15 9.07 -0.41c0.93,-0.1 1.75,-0.15 2.58,-0.15 9.64,0 17.79,-3.61 24.34,-10.72 6.55,-7.16 9.79,-15.83 9.79,-25.98l0 -4.07c0,-10.41 -3.56,-18.82 -10.67,-25.31 -7.07,-6.5 -15.78,-9.74 -26.04,-9.74l-2.73 -0.31 -3.92 -0.15 -9.08 0c-1.6,0.2 -2.83,0.31 -3.76,0.31zm18.15 92.28l-12.99 0c-7.78,0 -12.11,1.08 -13.09,3.19 -0.93,2.12 -1.39,8.51 -1.39,19.18l0 43.3c0,9.38 1.13,15.11 3.35,17.17 2.27,2.06 8.61,3.09 18.97,3.09l8.92 0c13.3,0 24.08,-3.51 32.32,-10.52 8.25,-6.96 12.37,-16.19 12.37,-27.68l0 -7.89c0,-12.37 -4.54,-22.11 -13.56,-29.18 -9.07,-7.11 -20.73,-10.67 -34.9,-10.67zm-3.51 -108.72c35.88,0 58.87,9.38 69.03,28.25 3.66,6.6 5.46,14.23 5.46,22.84 0,8.61 -2.06,16.19 -6.14,22.73 -4.07,6.55 -7.68,11.14 -10.88,13.66 -3.14,2.58 -6.39,4.85 -9.64,6.81 -3.3,1.96 -4.95,3.25 -4.95,3.87 0,0.62 4.07,2.93 12.17,7.01 8.09,4.07 14.54,8.92 19.28,14.43 8.45,10.05 12.68,20.41 12.68,31.14l0 3.92c0,17.68 -7.27,31.81 -21.76,42.27 -5.26,3.81 -12.58,7.16 -21.96,10.05 -9.43,2.89 -20.62,4.28 -33.61,4.28l-16.03 0 -3.92 -0.16c-2.63,-0.1 -5.26,-0.1 -7.99,-0.1l-3.92 -0.15c-2.63,-0.1 -5.26,-0.15 -7.89,-0.15l-3.92 -0.16c-2.63,-0.1 -5.21,-0.15 -7.84,-0.15l-11.65 0c-17.53,0 -26.24,-1.7 -26.24,-5.05 0,-3.4 2.68,-6.55 8.04,-9.54 5.41,-2.99 8.92,-8.05 10.57,-15.26 1.7,-7.22 2.53,-23.97 2.53,-50.37l0 -49.7 -0.31 -15.67c-0.11,-2.63 -0.16,-8.87 -0.16,-18.77 0,-9.84 -0.93,-16.75 -2.78,-20.78 -1.86,-3.97 -5.57,-7.27 -11.14,-9.84 -5.52,-2.63 -8.3,-4.95 -8.3,-6.96 0,-2.94 1.44,-4.9 4.23,-5.98 2.84,-1.03 11.5,-1.6 25.98,-1.6l35.06 -0.87 15.98 0z"/>
  <path id="_24" class="fil6" d="M5435.43 5484.85l-2.58 0c-13.2,0 -24.18,2.94 -33,8.82 -8.82,5.88 -13.2,13.2 -13.2,21.96l0 3.04c0,5.1 1.55,9.74 4.74,13.82 3.14,4.07 7.27,6.08 12.32,6.08l1.8 0.31 4.54 0c10.46,0 19.02,-4.28 25.67,-12.84 2.89,-3.71 4.38,-11.34 4.38,-22.94 0,-0.93 0,-1.81 0,-2.73l0.16 -3.61 0 -3.61c0,-5.57 -1.65,-8.3 -4.85,-8.3zm-73.41 -48.82c0,-7.42 5.93,-14.12 17.73,-20 11.86,-5.88 24.13,-8.82 36.81,-8.82 0.41,0 0.77,0 1.18,0 12.12,0 21.76,1.44 29.03,4.38 14.69,5.83 23.09,18.2 25.21,37.12 0.2,1.91 0.31,14.59 0.31,38 0,23.4 0.62,37.12 1.86,41.14 1.29,4.07 4.69,7.01 10.31,8.92 5.57,1.91 8.35,3.76 8.35,5.46 0,3.61 -1.81,6.39 -5.41,8.3 -7.27,3.82 -14.38,5.72 -21.4,5.72 -7.01,0 -12.22,-1.6 -15.62,-4.85 -6.13,-5.72 -9.43,-8.56 -9.8,-8.56 -0.41,0 -6.13,2.53 -17.11,7.58 -10.93,5.11 -20.57,7.63 -28.82,7.63 -12.37,0 -22.12,-3.4 -29.18,-10.26 -7.01,-6.86 -10.57,-15.16 -10.57,-24.9l0 -3.76c0,-10.52 4.54,-19.69 13.61,-27.68 9.07,-7.94 25.36,-14.12 48.92,-18.56 8.56,-1.6 13.97,-3.09 16.19,-4.54 4.43,-2.79 6.65,-8.56 6.65,-17.22 0,-8.66 -2.32,-15.31 -6.96,-19.9 -4.64,-4.64 -10.83,-6.96 -18.56,-6.96 -7.79,0 -15.26,4.48 -22.48,13.51 -7.17,9.02 -13.77,13.51 -19.69,13.51 -7.06,0 -10.57,-5.05 -10.57,-15.26z"/>
  <path id="_25" class="fil6" d="M5516.22 5549.44c0,-2.11 2.32,-4.79 6.85,-8.14 4.59,-3.3 7.68,-8.51 9.33,-15.62 1.6,-7.11 2.37,-34.07 2.37,-80.89 0,-46.81 -0.52,-73.36 -1.55,-79.6 -1.08,-6.24 -3.66,-10.72 -7.79,-13.46 -6.65,-4.33 -10,-6.96 -10,-7.99l0 -1.8c0,-1.7 1.49,-3.2 4.38,-4.54 9.07,-3.92 21.19,-5.88 36.29,-5.88l2.99 0c5.16,0 8.09,3.45 8.92,10.41 0.1,0.93 0.15,8.51 0.15,22.79l0 32.48 -0.15 6.19 0 9.54 -0.15 6.18c0,0 0,15.98 0,47.89 0,29.8 0.46,48.25 1.44,55.37 0.93,7.06 3.19,12.22 6.7,15.47 0.41,0.31 2.53,1.6 6.34,3.92 3.87,2.32 5.78,4.69 5.78,7.11 0,3.51 -6.24,5.26 -18.77,5.26l-6.19 0.31 -6.18 0 -24.75 0.46 -3.2 0c-8.56,0 -12.83,-1.8 -12.83,-5.46z"/>
  <path id="_26" class="fil6" d="M5691.14 5484.85l-2.58 0c-13.2,0 -24.18,2.94 -33,8.82 -8.82,5.88 -13.2,13.2 -13.2,21.96l0 3.04c0,5.1 1.55,9.74 4.74,13.82 3.14,4.07 7.27,6.08 12.32,6.08l1.8 0.31 4.54 0c10.46,0 19.02,-4.28 25.67,-12.84 2.89,-3.71 4.38,-11.34 4.38,-22.94 0,-0.93 0,-1.81 0,-2.73l0.16 -3.61 0 -3.61c0,-5.57 -1.65,-8.3 -4.85,-8.3zm-73.41 -48.82c0,-7.42 5.93,-14.12 17.73,-20 11.86,-5.88 24.13,-8.82 36.81,-8.82 0.41,0 0.77,0 1.18,0 12.12,0 21.76,1.44 29.03,4.38 14.69,5.83 23.09,18.2 25.21,37.12 0.2,1.91 0.31,14.59 0.31,38 0,23.4 0.62,37.12 1.86,41.14 1.29,4.07 4.69,7.01 10.31,8.92 5.57,1.91 8.35,3.76 8.35,5.46 0,3.61 -1.81,6.39 -5.41,8.3 -7.27,3.82 -14.38,5.72 -21.4,5.72 -7.01,0 -12.22,-1.6 -15.62,-4.85 -6.13,-5.72 -9.43,-8.56 -9.8,-8.56 -0.41,0 -6.13,2.53 -17.11,7.58 -10.93,5.11 -20.57,7.63 -28.82,7.63 -12.37,0 -22.12,-3.4 -29.18,-10.26 -7.01,-6.86 -10.57,-15.16 -10.57,-24.9l0 -3.76c0,-10.52 4.54,-19.69 13.61,-27.68 9.07,-7.94 25.36,-14.12 48.92,-18.56 8.56,-1.6 13.97,-3.09 16.19,-4.54 4.43,-2.79 6.65,-8.56 6.65,-17.22 0,-8.66 -2.32,-15.31 -6.96,-19.9 -4.64,-4.64 -10.83,-6.96 -18.56,-6.96 -7.79,0 -15.26,4.48 -22.48,13.51 -7.17,9.02 -13.77,13.51 -19.69,13.51 -7.06,0 -10.57,-5.05 -10.57,-15.26z"/>
  <path id="_27" class="fil6" d="M5793.67 5553.57c-14.17,0 -21.29,-2.07 -21.29,-6.09 0,-3.3 1.85,-6.03 5.57,-8.14 6.75,-3.82 10.67,-7.27 11.81,-10.36 1.08,-3.04 1.65,-17.58 1.65,-43.61 0,-26.04 -0.78,-41.29 -2.32,-45.78 -1.6,-4.48 -4.43,-8.2 -8.56,-11.09 -4.12,-2.94 -6.19,-5.31 -6.19,-7.11 0,-1.81 1.34,-3.51 4.08,-5.15 6.34,-3.71 16.39,-5.57 30.21,-5.57 4.12,0 7.37,1.39 9.69,4.23 0.78,1.03 1.91,3.19 3.35,6.6 1.49,3.35 2.47,5.05 2.99,5.05 1.91,-0.1 4.85,-1.49 8.87,-4.07 13.92,-9.38 26.5,-14.07 37.79,-14.07l0.31 0 4.79 0c8.2,0 15.52,2.01 22.07,6.03 6.55,4.02 11.6,10.1 15.21,18.15 3.56,8.04 5.36,25.57 5.36,52.63 0,27.01 0.57,42.12 1.7,45.31 1.18,3.14 4.43,6.08 9.85,8.82 5.36,2.73 8.04,5.41 8.04,7.99 0,4.54 -14.28,6.81 -42.89,6.81l-4.48 0c-9.07,0 -13.61,-2.17 -13.61,-6.5 0,-0.88 1.08,-3.1 3.3,-6.55 2.21,-3.51 3.76,-7.32 4.54,-11.55 0.82,-4.23 1.24,-18.14 1.24,-41.76 0,-23.61 -1.49,-38.82 -4.38,-45.57 -4.02,-9.23 -10.72,-13.87 -20.1,-13.87 -6.86,0 -13.45,1.6 -19.85,4.74 -6.39,3.19 -11.04,7.68 -13.92,13.45 -2.84,5.77 -4.28,19.64 -4.28,41.55 0,21.86 0.62,35.1 1.81,39.7 1.18,4.59 2.68,8.3 4.38,11.08l5.57 9.07c0,3.92 -7.89,5.88 -23.71,5.88l-9.18 -0.26 -9.38 0z"/>
  <path id="_28" class="fil6" d="M6071.24 5451.13c-4.23,0 -10.05,-4.38 -17.58,-13.15 -7.47,-8.76 -16.13,-13.14 -25.98,-13.14 -9.8,0 -18.04,4.9 -24.69,14.59 -6.65,9.74 -9.95,23.51 -9.95,41.3 0,17.84 4.07,31.76 12.32,41.76 8.19,10.05 18.87,15.05 32.07,15.05 7.27,0 13.3,-0.93 18.2,-2.73 4.9,-1.81 9.43,-3.76 13.61,-5.83 4.17,-2.06 7.11,-3.09 8.82,-3.09 2.93,0 4.38,1.96 4.38,5.77 0,5.83 -5.87,11.6 -17.68,17.37 -11.76,5.72 -23.2,8.61 -34.28,8.61 -21.55,0 -38.87,-6.75 -51.91,-20.26 -5.36,-5.52 -9.85,-12.68 -13.45,-21.39 -3.66,-8.66 -5.46,-18.05 -5.46,-28l0 -7.42c0,-0.15 0,-0.41 0,-0.72 0,-0.21 0,-0.41 0,-0.62 0,-8.77 1.96,-17.84 5.93,-27.17 7.73,-18.35 20.21,-31.04 37.43,-38.05 10,-4.07 19.9,-6.08 29.75,-6.08l3.51 0c13.56,0 25.11,2.37 34.59,7.11 7.63,3.82 11.44,10.21 11.44,19.18 0,5.93 -1.18,10.26 -3.56,12.94 -2.32,2.63 -4.85,3.97 -7.47,3.97z"/>
  <path id="_29" class="fil6" d="M6203.21 5456.6l0 -4.69c0,-7.48 -2.63,-14.18 -7.99,-20.16 -5.31,-5.98 -11.86,-9.02 -19.64,-9.02l-2.83 0c-1.44,0.2 -2.37,0.31 -2.89,0.31 -7.07,0 -13.71,4.02 -20.01,12.12 -6.29,8.04 -9.43,16.65 -9.43,25.83l0 1.96c0,3.19 1.91,4.79 5.72,4.79 1.49,0.31 2.32,0.46 2.42,0.46l3.45 0.16 0.93 0 1.03 -0.16 29.18 -1.65 5.41 -0.62c9.8,0 14.64,-3.09 14.64,-9.33zm-62.79 40.01c0,11.5 4.33,21.08 12.99,28.87 8.66,7.73 19.64,11.6 32.89,11.6 5.36,0 10.21,-0.77 14.59,-2.32 4.38,-1.55 9.18,-3.45 14.33,-5.67 5.21,-2.21 8.45,-3.35 9.74,-3.35 4.02,0 6.08,2.17 6.08,6.5 0,5.87 -7.47,12.11 -22.37,18.76 -9.69,4.33 -20.05,6.5 -31.14,6.5l-3.3 0c-18.92,0 -34.64,-5.78 -47.12,-17.22 -6.75,-6.24 -12.01,-14.23 -15.72,-23.97 -3.71,-9.69 -5.57,-20.15 -5.57,-31.34l0.15 -3.45 0 -3.45c0,-9.69 2.21,-19.17 6.65,-28.56 4.54,-9.38 9.9,-17.07 16.14,-23.1 13.2,-12.68 28.87,-19.07 46.97,-19.18 27.37,0 45.62,10.67 54.7,32.02 2.84,6.75 4.23,12.94 4.23,18.56l0 3.05c0,6.9 -2.88,11.6 -8.61,13.97 -5.78,2.37 -19.28,4.28 -40.62,5.77 -21.34,1.55 -32.94,2.53 -34.75,3.04 -6.86,1.7 -10.26,6.03 -10.26,12.99z"/>
  <path id="_30" class="fil6" d="M6286.73 5558.36c-5.2,0 -10,-1.85 -14.33,-5.57 -4.33,-3.71 -6.5,-8.61 -6.5,-14.64l0 -1.39c0,-5.83 2.22,-10.67 6.7,-14.49 4.48,-3.81 9.07,-5.72 13.66,-5.72l2.73 0c1.49,0.31 2.63,0.46 3.35,0.46 3.51,0 7.16,1.91 10.98,5.72 3.87,3.82 5.78,8.25 5.78,13.3l0 2.12c0,4.64 -1.86,9.07 -5.52,13.35 -3.66,4.28 -7.89,6.39 -12.63,6.44l-3.45 0.41 -0.78 0z"/>
 </g>
</svg>
